<svg width="15" height="14" viewBox="0 0 15 14" fill="none" xmlns="http://www.w3.org/2000/svg">
<path d="M0.937887 0.111143L0.317586 0.737086C0.170774 0.885234 0.170774 1.12544 0.317586 1.27362L5.97887 7L0.317587 12.7264C0.170775 12.8746 0.170775 13.1148 0.317587 13.2629L0.937889 13.8889C1.0847 14.037 1.32275 14.037 1.46959 13.8889L8.03052 7.26825C8.17733 7.1201 8.17733 6.87989 8.03052 6.73172L1.46959 0.11111C1.32274 -0.0370363 1.0847 -0.0370363 0.937887 0.111143Z" fill="#008ECE"/>
<path d="M6.88711 0.111143L6.2668 0.737086C6.11999 0.885234 6.11999 1.12544 6.26681 1.27362L11.9281 7L6.26681 12.7264C6.11999 12.8746 6.11999 13.1148 6.26681 13.2629L6.88711 13.8889C7.03392 14.037 7.27196 14.037 7.41881 13.8889L13.9797 7.26825C14.1265 7.1201 14.1265 6.87989 13.9797 6.73172L7.41881 0.11111C7.27196 -0.0370363 7.03392 -0.0370363 6.88711 0.111143Z" fill="#008ECE"/>
</svg>
