<svg width="14" height="14" viewBox="0 0 14 14" fill="none" xmlns="http://www.w3.org/2000/svg">
<path d="M0.736566 0.111143L0.111037 0.737086C-0.0370123 0.885234 -0.0370123 1.12544 0.111037 1.27362L5.82003 7L0.111038 12.7264C-0.0370112 12.8746 -0.0370112 13.1148 0.111038 13.2629L0.736567 13.8889C0.884616 14.037 1.12467 14.037 1.27275 13.8889L7.88896 7.26825C8.03701 7.1201 8.03701 6.87989 7.88896 6.73172L1.27275 0.11111C1.12467 -0.0370363 0.884615 -0.0370363 0.736566 0.111143Z" fill="#008ECE"/>
<path d="M6.73657 0.111143L6.11104 0.737086C5.96299 0.885234 5.96299 1.12544 6.11104 1.27362L11.82 7L6.11104 12.7264C5.96299 12.8746 5.96299 13.1148 6.11104 13.2629L6.73657 13.8889C6.88462 14.037 7.12467 14.037 7.27275 13.8889L13.889 7.26825C14.037 7.1201 14.037 6.87989 13.889 6.73172L7.27275 0.11111C7.12467 -0.0370363 6.88461 -0.0370363 6.73657 0.111143Z" fill="#008ECE"/>
</svg>
