<svg width="14" height="14" viewBox="0 0 14 14" fill="none" xmlns="http://www.w3.org/2000/svg">
<path d="M0.736788 0.111627L0.111278 0.73757C-0.0367662 0.885718 -0.0367662 1.12593 0.111278 1.27411L5.8201 7.00049L0.111279 12.7269C-0.0367652 12.875 -0.0367652 13.1153 0.111279 13.2634L0.736789 13.8894C0.884833 14.0375 1.12488 14.0375 1.27295 13.8894L7.88897 7.26874C8.03701 7.12059 8.03701 6.88038 7.88897 6.7322L1.27295 0.111596C1.12488 -0.0365518 0.884832 -0.0365518 0.736788 0.111627Z" fill="white"/>
<path d="M6.73673 0.111627L6.11122 0.73757C5.96317 0.885718 5.96317 1.12593 6.11122 1.27411L11.8201 7.00049L6.11122 12.7269C5.96317 12.875 5.96317 13.1153 6.11122 13.2634L6.73673 13.8894C6.88478 14.0375 7.12482 14.0375 7.2729 13.8894L13.889 7.26874C14.037 7.12059 14.037 6.88038 13.889 6.7322L7.2729 0.111596C7.12482 -0.0365518 6.88478 -0.0365518 6.73673 0.111627Z" fill="white"/>
</svg>
