<svg width="46" height="25" viewBox="0 0 46 25" fill="none" xmlns="http://www.w3.org/2000/svg">
<path d="M37.5727 0C32.0416 0 29.9353 4.51614 29.8696 7.55152V12.4586C29.8587 12.6801 29.7711 13.3142 29.4757 13.8348C29.2149 14.2942 28.8064 14.7211 27.6028 14.7211C26.4083 14.7211 26.009 14.3014 25.7537 13.8475C25.4619 13.3268 25.378 12.6873 25.3707 12.473V7.58935C25.3488 4.53956 23.2881 0 17.7023 0C12.1584 0 10.0174 4.52515 9.92987 7.56773C9.92987 7.59295 9.92805 7.61817 9.92805 7.64519V17.4143C9.92258 17.6214 9.84598 18.2483 9.56332 18.7563C9.32077 19.1922 8.93598 19.594 7.76703 19.594C6.56889 19.594 6.15128 19.1508 5.89961 18.7167C5.59689 18.1925 5.46741 17.589 5.45829 17.3854C5.32881 16.0272 4.17262 14.9661 2.76477 14.9661C1.33138 14.9661 0.122303 16.0686 0.0292969 17.4629C0.0730644 20.4911 2.17026 24.9982 7.76703 24.9982C10.5207 24.9982 12.224 23.8777 13.1705 22.9374C15.3315 20.7865 15.4008 17.8196 15.4008 17.4197V7.71004C15.4099 7.61277 15.4811 6.98588 15.7783 6.41843C16.0519 5.89062 16.4749 5.40424 17.7023 5.40424C18.8603 5.40424 19.256 5.82036 19.5095 6.27252C19.8013 6.79132 19.8888 7.42722 19.8997 7.6488V12.5C19.8997 15.566 21.9513 20.1272 27.6028 20.1272C33.2397 20.1272 35.3187 15.5786 35.3406 12.5198V7.67402C35.357 7.43983 35.4554 6.81114 35.7527 6.29233C36.0171 5.83117 36.4202 5.40604 37.5727 5.40604C38.6997 5.40604 39.079 5.81316 39.3216 6.2545C39.6097 6.77871 39.69 7.42002 39.6991 7.63619V22.2979C39.6991 23.7894 40.9246 25 42.4345 25C43.9445 25 45.17 23.7894 45.17 22.2979V7.60917C45.17 4.55037 43.1458 0 37.5727 0Z" fill="#AD906E"/>
</svg>
