<svg width="40" height="40" viewBox="0 0 40 40" fill="none" xmlns="http://www.w3.org/2000/svg">
<rect width="40" height="40" rx="5" fill="#008ECE"/>
<path fill-rule="evenodd" clip-rule="evenodd" d="M28.8937 17.9887C28.662 17.9887 28.4392 18.0062 28.2164 18.0324C28.2431 17.7878 28.261 17.5344 28.261 17.2811C28.261 13.8129 25.3914 11 21.8536 11C18.6276 11 15.9542 13.3412 15.5086 16.3813C15.1699 16.2939 14.8135 16.2503 14.4481 16.2503C12.6123 16.2503 11.0528 17.4034 10.4825 19.0195C7.99618 19.0719 6 21.055 6 23.5098C6 25.9907 8.04965 28 10.5805 28H29.5264L29.5709 27.9563C32.0751 27.6331 34 25.5277 34 22.9943C34.0089 20.2251 31.7186 17.9887 28.8937 17.9887ZM17.2018 26.1393L14.056 23.0555H16.1769V18.3731H18.2355V23.0555H20.3564L17.2018 26.1393ZM23.8854 21.4568V26.148H21.8268V21.4568H19.7059L22.8517 18.3731L25.9974 21.4568H23.8854Z" fill="white"/>
</svg>
