<svg width="267" height="68" viewBox="0 0 267 68" fill="none" xmlns="http://www.w3.org/2000/svg">
<g clip-path="url(#clip0_608_2723)">
<path d="M6.41489 16.8843H3.59492V24.6626H2.81997V16.8843H0V16.1436H6.41489V16.8843Z" fill="white"/>
<path d="M13.7127 16.1445V24.6636H12.9449V20.6764H8.25933V24.6636H7.48438V16.1445H8.25933V19.9356H12.9449V16.1445H13.7127Z" fill="white"/>
<path d="M20.9017 23.9155V24.6563H15.5918V16.1445H20.8012V16.8853H16.3739V19.9574H20.2415V20.6692H16.3739V23.9228H20.9017V23.9155Z" fill="white"/>
<path d="M24.9844 24.6636V16.1445H28.3282C28.6654 16.1445 28.9811 16.2244 29.2681 16.3769C29.5552 16.5295 29.7991 16.7328 30.0072 16.987C30.2153 17.2412 30.3732 17.5244 30.488 17.844C30.6028 18.1635 30.6602 18.4904 30.6602 18.8172C30.6602 19.1295 30.6171 19.4272 30.531 19.7105C30.4449 19.9937 30.3301 20.2552 30.1723 20.4803C30.0216 20.7055 29.835 20.9016 29.6197 21.0541C29.4045 21.2138 29.1605 21.3155 28.895 21.3736L30.8324 24.6636H29.9498L28.0914 21.5189H25.7593V24.6636H24.9844ZM25.7593 20.7708H28.3425C28.5721 20.7708 28.7874 20.72 28.9739 20.611C29.1677 20.5021 29.3255 20.3569 29.4547 20.1753C29.591 19.9937 29.6915 19.7831 29.7704 19.5507C29.8422 19.3183 29.8852 19.0786 29.8852 18.8172C29.8852 18.563 29.8422 18.3161 29.7561 18.0837C29.67 17.844 29.5552 17.6406 29.4117 17.4663C29.2681 17.292 29.0959 17.1468 28.9022 17.0451C28.7013 16.9434 28.5004 16.8853 28.2851 16.8853H25.7593V20.7708Z" fill="white"/>
<path d="M32.1387 24.6636V16.1445H32.9136V24.6636H32.1387Z" fill="white"/>
<path d="M40.4985 23.4144C39.7666 24.2859 38.9199 24.7216 37.9584 24.7216C37.4274 24.7216 36.9323 24.5982 36.4803 24.3512C36.0354 24.1043 35.6407 23.7775 35.3107 23.3708C34.9806 22.9641 34.7223 22.4993 34.5357 21.9836C34.3491 21.468 34.2559 20.9378 34.2559 20.3931C34.2559 19.8266 34.342 19.2819 34.5285 18.759C34.7079 18.2361 34.9662 17.7786 35.2891 17.3864C35.612 16.9942 35.9995 16.6746 36.4516 16.435C36.8964 16.1953 37.3772 16.0791 37.9082 16.0791C38.2957 16.0791 38.6473 16.1299 38.963 16.2171C39.2859 16.3115 39.5657 16.435 39.8169 16.602C40.0608 16.7691 40.2833 16.9579 40.4627 17.1903C40.642 17.4227 40.7999 17.6696 40.9219 17.9383L40.3191 18.3668C40.0608 17.8367 39.7164 17.4517 39.3074 17.2048C38.8984 16.9579 38.4248 16.8344 37.8938 16.8344C37.4561 16.8344 37.0615 16.9361 36.7099 17.1322C36.3583 17.3355 36.0569 17.597 35.8058 17.9311C35.5618 18.2652 35.3681 18.6428 35.2317 19.0713C35.1026 19.4998 35.0308 19.9428 35.0308 20.4004C35.0308 20.8797 35.1097 21.3372 35.2604 21.7657C35.4111 22.2015 35.6264 22.5792 35.8919 22.8987C36.1574 23.2255 36.4731 23.4797 36.8319 23.6758C37.1906 23.8646 37.5853 23.9591 38.0086 23.9591C38.4607 23.9591 38.8912 23.8429 39.3002 23.6177C39.7092 23.3853 40.1039 23.0294 40.4842 22.5283V21.1121H38.7262V20.4657H41.1443V24.6563H40.4842V23.4144H40.4985Z" fill="white"/>
<path d="M48.8787 16.1445V24.6636H48.1109V20.6764H43.4253V24.6636H42.6504V16.1445H43.4253V19.9356H48.1109V16.1445H48.8787Z" fill="white"/>
<path d="M56.3635 16.8853H53.5435V24.6636H52.7614V16.8853H49.9414V16.1445H56.3563V16.8853H56.3635Z" fill="white"/>
<path d="M65.7922 22.463C65.7922 22.7826 65.7348 23.0803 65.6128 23.3418C65.4909 23.6105 65.333 23.8429 65.1321 24.039C64.9312 24.2351 64.6944 24.3876 64.4289 24.4966C64.1634 24.6055 63.8764 24.6563 63.575 24.6563H59.8438V16.1445H63.6468C63.9266 16.1445 64.1706 16.2099 64.393 16.3334C64.6154 16.4641 64.802 16.6239 64.9599 16.8345C65.1177 17.0378 65.2397 17.2702 65.3258 17.5317C65.4119 17.7931 65.455 18.0546 65.455 18.3161C65.455 18.7446 65.3545 19.144 65.1536 19.4999C64.9527 19.8557 64.6729 20.1245 64.3141 20.2988C64.7661 20.444 65.1249 20.7127 65.3904 21.1049C65.6559 21.4898 65.7922 21.9474 65.7922 22.463ZM60.6259 16.8708V20.0155H63.3454C63.5391 20.0155 63.7185 19.9719 63.8835 19.8848C64.0486 19.7976 64.1921 19.6814 64.3141 19.5362C64.4361 19.3909 64.5222 19.2239 64.5939 19.0351C64.6657 18.8462 64.6944 18.6501 64.6944 18.4395C64.6944 18.2216 64.6585 18.0183 64.6011 17.8295C64.5365 17.6406 64.4504 17.4736 64.3356 17.3283C64.2208 17.1904 64.0845 17.0741 63.9338 16.9943C63.7759 16.9071 63.6037 16.8708 63.4171 16.8708H60.6259ZM65.0101 22.325C65.0101 22.1144 64.9742 21.9183 64.9096 21.715C64.8451 21.5189 64.7518 21.3446 64.6298 21.1993C64.5078 21.0541 64.3643 20.9306 64.1921 20.8362C64.0271 20.7418 63.8477 20.6982 63.6539 20.6982H60.6259V23.9301H63.575C63.7759 23.9301 63.9625 23.8865 64.1347 23.7993C64.3069 23.7122 64.4648 23.596 64.5939 23.4435C64.7231 23.2982 64.8235 23.1239 64.9025 22.9278C64.9742 22.7317 65.0101 22.5284 65.0101 22.325Z" fill="white"/>
<path d="M69.4309 16.1445H70.0911L73.3703 24.6636H72.5451L71.519 21.9982H67.9671L66.9554 24.6636H66.123L69.4309 16.1445ZM71.3468 21.3373L69.7538 17.125L68.1394 21.3373H71.3468Z" fill="white"/>
<path d="M73.584 20.3424C73.584 19.8267 73.6629 19.3184 73.8351 18.81C74.0002 18.3016 74.2441 17.8513 74.5598 17.4446C74.8827 17.0452 75.2774 16.7183 75.7366 16.4714C76.203 16.2172 76.734 16.0938 77.3296 16.0938C78.0328 16.0938 78.6355 16.2681 79.1378 16.6094C79.6401 16.9507 80.006 17.401 80.2428 17.953L79.6329 18.3597C79.5109 18.0764 79.3531 17.844 79.1737 17.648C78.9943 17.4591 78.8005 17.2993 78.5925 17.1831C78.3844 17.0669 78.1691 16.9798 77.9467 16.9217C77.7242 16.8709 77.5018 16.8418 77.2865 16.8418C76.8129 16.8418 76.3968 16.9435 76.0308 17.1541C75.6649 17.3647 75.3635 17.6334 75.1124 17.9675C74.8612 18.3016 74.6747 18.6792 74.5455 19.1005C74.4163 19.5217 74.3518 19.9429 74.3518 20.3787C74.3518 20.8508 74.4307 21.3011 74.5814 21.7368C74.7321 22.1726 74.9401 22.5502 75.2056 22.8843C75.4711 23.2184 75.7797 23.4798 76.1385 23.6759C76.4972 23.872 76.8919 23.9664 77.3081 23.9664C77.5305 23.9664 77.7601 23.9374 77.9897 23.8793C78.2265 23.8212 78.449 23.7268 78.6714 23.5888C78.8938 23.4581 79.0947 23.291 79.2741 23.0949C79.4607 22.8988 79.6186 22.6592 79.7405 22.3832L80.3863 22.7463C80.2643 23.0659 80.085 23.3491 79.8553 23.5888C79.6257 23.8357 79.3746 24.0391 79.0876 24.2061C78.8077 24.3731 78.5064 24.5039 78.1906 24.591C77.8749 24.6782 77.5664 24.7218 77.265 24.7218C76.7197 24.7218 76.2246 24.591 75.7725 24.3368C75.3204 24.0826 74.9258 23.7486 74.6029 23.3346C74.28 22.9206 74.0217 22.4558 73.8423 21.9329C73.6701 21.4173 73.584 20.8871 73.584 20.3424Z" fill="white"/>
<path d="M81.6348 24.6636V16.1518H82.4097V21.0976L86.7652 16.1445H87.6191L84.3902 19.892L87.7842 24.6709H86.9303L83.9022 20.3859L82.4097 22.0563V24.6709H81.6348V24.6636Z" fill="white"/>
<path d="M91.8828 23.9658C92.3779 23.9658 92.7941 23.8642 93.1242 23.6608C93.4542 23.4575 93.7197 23.1887 93.9135 22.8547C94.1072 22.5206 94.2435 22.1429 94.3225 21.7217C94.4014 21.3004 94.4373 20.872 94.4373 20.4362V16.1367H95.2194V20.4362C95.2194 21.0099 95.162 21.5546 95.04 22.0776C94.918 22.5932 94.7315 23.0507 94.466 23.4357C94.2005 23.8278 93.8561 24.1401 93.4327 24.3725C93.0094 24.6049 92.4927 24.7211 91.8828 24.7211C91.2585 24.7211 90.7347 24.5977 90.3114 24.358C89.888 24.1111 89.5436 23.7915 89.2853 23.3921C89.027 22.9926 88.8404 22.5351 88.7256 22.0267C88.6108 21.5111 88.5605 20.9882 88.5605 20.4435V16.144H89.3283V20.4435C89.3283 20.8937 89.3714 21.3295 89.4503 21.7507C89.5292 22.1792 89.6727 22.5496 89.8665 22.8764C90.0674 23.2033 90.3257 23.472 90.6486 23.6681C90.9859 23.8642 91.3949 23.9658 91.8828 23.9658Z" fill="white"/>
<path d="M96.9766 24.6636V16.1445H100.249C100.593 16.1445 100.902 16.2244 101.189 16.3769C101.468 16.5295 101.72 16.7328 101.928 16.987C102.136 17.2412 102.301 17.5244 102.416 17.844C102.538 18.1635 102.595 18.4904 102.595 18.8172C102.595 19.173 102.538 19.5071 102.43 19.8339C102.315 20.1608 102.157 20.444 101.964 20.6909C101.763 20.9379 101.519 21.1412 101.246 21.2937C100.966 21.4463 100.658 21.5189 100.32 21.5189H97.7587V24.6636H96.9766ZM97.7515 20.7708H100.277C100.507 20.7708 100.722 20.72 100.909 20.611C101.102 20.5021 101.26 20.3569 101.389 20.1826C101.526 20.001 101.626 19.7976 101.705 19.558C101.777 19.3183 101.82 19.0786 101.82 18.8172C101.82 18.5557 101.777 18.3015 101.691 18.0691C101.605 17.8367 101.49 17.6261 101.346 17.4518C101.203 17.2775 101.031 17.1395 100.837 17.0378C100.636 16.9362 100.435 16.8853 100.22 16.8853H97.7587V20.7708H97.7515Z" fill="white"/>
<path d="M18.4984 53.4678C18.4984 54.4482 18.319 55.3488 17.9531 56.1695C17.5871 56.9901 17.0848 57.6946 16.4606 58.2974C15.8363 58.9002 15.1044 59.365 14.2792 59.6918C13.4469 60.0259 12.5571 60.1857 11.6099 60.1857H0V34.1201H11.8539C12.7006 34.1201 13.4827 34.3162 14.1716 34.7084C14.8676 35.1006 15.456 35.609 15.9368 36.2335C16.4247 36.8581 16.805 37.5699 17.0705 38.3615C17.336 39.1531 17.4651 39.9593 17.4651 40.7654C17.4651 42.0872 17.1566 43.2928 16.5323 44.3822C15.9081 45.4716 15.0398 46.285 13.9348 46.8225C15.3412 47.2655 16.4534 48.0862 17.2786 49.2845C18.0822 50.4756 18.4984 51.87 18.4984 53.4678ZM2.42532 36.357V45.9727H10.878C11.4808 45.9727 12.0333 45.842 12.5571 45.5733C13.0737 45.3046 13.5186 44.9487 13.8846 44.5057C14.2505 44.0627 14.5447 43.5615 14.7528 42.9805C14.9609 42.4068 15.0614 41.804 15.0614 41.1649C15.0614 40.504 14.9681 39.8794 14.7672 39.2984C14.5734 38.7101 14.2936 38.2017 13.9348 37.7732C13.576 37.3447 13.1527 37.0034 12.6719 36.7492C12.184 36.4877 11.653 36.3643 11.079 36.3643H2.42532V36.357ZM16.0803 53.0247C16.0803 52.3929 15.9655 51.7683 15.7646 51.1655C15.5565 50.57 15.2694 50.0398 14.882 49.5895C14.5017 49.1392 14.0496 48.7688 13.533 48.4856C13.0092 48.2024 12.4495 48.0644 11.8539 48.0644H2.42532V57.9343H11.6099C12.227 57.9343 12.8083 57.8036 13.3608 57.5348C13.8989 57.2661 14.3725 56.903 14.7743 56.4527C15.1762 56.0024 15.4919 55.4723 15.7287 54.8695C15.9583 54.2812 16.0803 53.6639 16.0803 53.0247Z" fill="white"/>
<path d="M26.7786 60.5487C25.9176 60.5487 25.1355 60.3961 24.4036 60.0911C23.686 59.7861 23.0402 59.3648 22.5021 58.8202C21.9639 58.2827 21.5405 57.6581 21.2392 56.9319C20.9378 56.2129 20.7871 55.4358 20.7871 54.6078C20.7871 53.7726 20.9737 53.0028 21.3468 52.291C21.7127 51.5793 22.2366 50.9693 22.9039 50.4536C23.5712 49.938 24.3677 49.5458 25.2861 49.2553C26.2118 48.972 27.2307 48.834 28.3357 48.834C29.2542 48.834 30.1942 48.9139 31.1413 49.0882C32.0813 49.2625 32.9352 49.5095 33.6743 49.8218V48.0932C33.6743 46.4083 33.2222 45.0647 32.3181 44.077C31.4212 43.0893 30.1727 42.5954 28.5797 42.5954C27.6541 42.5954 26.7069 42.7915 25.7382 43.1837C24.7695 43.5759 23.7865 44.1351 22.7962 44.8686L21.9639 43.22C24.2959 41.5569 26.549 40.7217 28.7447 40.7217C31.005 40.7217 32.7845 41.3971 34.0761 42.7407C35.3677 44.0843 36.0135 45.9508 36.0135 48.3184V56.9464C36.0135 57.6291 36.3077 57.9704 36.8817 57.9704V60.171C36.4943 60.2436 36.1929 60.2799 35.9848 60.2799C35.3821 60.2799 34.9228 60.1202 34.5856 59.8006C34.2483 59.481 34.0689 59.038 34.0474 58.4788L33.9757 56.9754C33.1433 58.1302 32.0957 59.009 30.8472 59.619C29.5914 60.2436 28.2353 60.5487 26.7786 60.5487ZM27.3383 58.6386C28.5582 58.6386 29.6847 58.3917 30.7108 57.9051C31.7369 57.4112 32.519 56.7648 33.05 55.9587C33.2581 55.7408 33.416 55.5011 33.5236 55.2397C33.6241 54.9855 33.6815 54.7458 33.6815 54.5279V51.405C32.8922 51.0855 32.0813 50.8385 31.2346 50.6715C30.3951 50.4972 29.5269 50.41 28.6515 50.41C26.9867 50.41 25.6449 50.7804 24.6045 51.5139C23.5569 52.2475 23.0474 53.2134 23.0474 54.4117C23.0474 55 23.1622 55.552 23.3703 56.0676C23.5927 56.5833 23.8941 57.0263 24.2672 57.4039C24.6547 57.7816 25.1068 58.0794 25.6377 58.3045C26.1687 58.5296 26.7356 58.6386 27.3383 58.6386Z" fill="white"/>
<path d="M39.5234 50.5631C39.5234 49.2195 39.7387 47.9485 40.1764 46.7502C40.6141 45.5519 41.2312 44.5061 42.0277 43.6128C42.8242 42.7195 43.7785 42.015 44.8907 41.4993C45.9957 40.9837 47.2227 40.7295 48.5574 40.7295C50.2651 40.7295 51.7576 41.1362 53.0277 41.9569C54.2978 42.7776 55.2593 43.8887 55.8979 45.2832L53.6089 46.053C53.0995 45.0798 52.3891 44.31 51.485 43.758C50.5737 43.206 49.5619 42.9301 48.4569 42.9301C47.5313 42.9301 46.6702 43.1262 45.8737 43.5183C45.0773 43.9033 44.3812 44.4407 43.7929 45.1089C43.2116 45.7843 42.7452 46.5832 42.4152 47.5128C42.0779 48.4424 41.9057 49.4592 41.9057 50.5631C41.9057 51.6452 42.0779 52.6547 42.4295 53.6134C42.7739 54.5648 43.2475 55.3927 43.8431 56.09C44.4458 56.7872 45.149 57.3391 45.9455 57.7458C46.742 58.1453 47.5887 58.3486 48.4928 58.3486C49.0668 58.3486 49.6409 58.2615 50.2077 58.0872C50.7746 57.9201 51.2984 57.6805 51.7792 57.3754C52.2671 57.0704 52.6761 56.7218 53.0277 56.3296C53.3721 55.9447 53.6089 55.5235 53.7596 55.0804L56.0773 55.814C55.8261 56.5039 55.453 57.1285 54.9723 57.7023C54.4843 58.276 53.9175 58.7844 53.2573 59.2056C52.5972 59.6341 51.8653 59.9609 51.076 60.1933C50.2795 60.4257 49.4471 60.5419 48.6004 60.5419C47.2801 60.5419 46.0675 60.2805 44.9625 59.7503C43.8503 59.2201 42.8959 58.5011 42.0779 57.5861C41.2743 56.6637 40.6428 55.6106 40.1908 54.4123C39.7459 53.2212 39.5234 51.9357 39.5234 50.5631Z" fill="white"/>
<path d="M72.3136 60.1858L65.6691 50.3885L61.7943 54.2014V60.1858H59.4336V33.3867H61.7943V51.5941L71.9405 41.0924H74.6098L67.2262 48.9142L74.8753 60.1786H72.3136V60.1858Z" fill="white"/>
<path d="M83.0928 60.5495C81.1267 60.5495 79.6701 59.8596 78.7085 58.4797C77.7542 57.0925 77.2734 55.0372 77.2734 52.2919V41.0566H79.6198V51.8489C79.6198 56.1774 81.019 58.349 83.8103 58.349C84.5063 58.349 85.1808 58.2255 85.8481 57.9786C86.5155 57.7316 87.1326 57.3758 87.6994 56.911C88.2663 56.4461 88.7829 55.8942 89.2278 55.2623C89.6799 54.6232 90.0458 53.9042 90.3185 53.0981V41.0566H92.6792V56.9545C92.6792 57.6372 92.9519 57.9786 93.5116 57.9786V60.1791C93.2389 60.23 93.0021 60.2518 92.8371 60.2518C92.672 60.2518 92.5429 60.2518 92.4783 60.2518C91.9186 60.2227 91.4737 60.0194 91.1221 59.6272C90.7777 59.2423 90.6055 58.7121 90.6055 58.0512V55.8506C89.8162 57.3395 88.7542 58.4942 87.3981 59.3149C86.0562 60.1428 84.614 60.5495 83.0928 60.5495Z" fill="white"/>
<path d="M106.879 60.5487C105.358 60.5487 104.016 60.142 102.847 59.3213C101.677 58.5006 100.737 57.4693 100.027 56.2201V68.0001H97.666V41.0558H99.7756V44.767C100.515 43.5686 101.476 42.5954 102.66 41.8474C103.837 41.0993 105.114 40.7217 106.499 40.7217C107.74 40.7217 108.888 40.9977 109.929 41.5496C110.969 42.0943 111.866 42.8351 112.627 43.7502C113.388 44.6653 113.983 45.7256 114.414 46.924C114.844 48.1223 115.059 49.3569 115.059 50.6352C115.059 51.9788 114.866 53.257 114.471 54.4553C114.076 55.6536 113.517 56.7067 112.792 57.6146C112.06 58.5224 111.199 59.2341 110.194 59.757C109.183 60.2872 108.078 60.5487 106.879 60.5487ZM106.226 58.3481C107.195 58.3481 108.078 58.1302 108.874 57.6872C109.663 57.2442 110.352 56.6631 110.912 55.9441C111.479 55.2252 111.909 54.4045 112.204 53.4821C112.505 52.567 112.656 51.6156 112.656 50.6352C112.656 49.6111 112.483 48.6307 112.132 47.7011C111.787 46.7715 111.314 45.9508 110.718 45.239C110.115 44.5346 109.405 43.9681 108.58 43.5541C107.762 43.1401 106.879 42.9295 105.932 42.9295C105.329 42.9295 104.705 43.053 104.045 43.3144C103.385 43.5686 102.775 43.9172 102.208 44.3385C101.641 44.767 101.153 45.2681 100.751 45.8418C100.35 46.4156 100.099 47.0184 100.012 47.6575V53.533C100.285 54.2229 100.637 54.8548 101.067 55.443C101.498 56.0313 101.978 56.5397 102.517 56.9682C103.062 57.3967 103.65 57.7308 104.267 57.9777C104.906 58.2246 105.545 58.3481 106.226 58.3481Z" fill="white"/>
<path d="M125.657 34.1201H129.883L139.233 60.1784H134.318L132.029 53.6856H123.44L121.194 60.1857H116.271L125.657 34.1201ZM131.161 50.127L127.767 39.8866L124.236 50.127H131.161Z" fill="white"/>
<path d="M147.787 60.549C146.259 60.549 144.78 60.2948 143.317 59.7791C141.86 59.2635 140.619 58.5299 139.578 57.5785L141.307 54.4992C142.412 55.3344 143.496 55.9662 144.544 56.3875C145.598 56.816 146.646 57.0338 147.679 57.0338C148.605 57.0338 149.322 56.845 149.861 56.4819C150.399 56.1187 150.657 55.5886 150.657 54.9059C150.657 54.2159 150.349 53.7221 149.724 53.4025C149.107 53.083 148.088 52.7126 146.682 52.2986C145.505 51.9573 144.493 51.6232 143.661 51.3036C142.836 50.9913 142.161 50.6282 141.652 50.2215C141.142 49.8221 140.776 49.3572 140.547 48.8271C140.317 48.2969 140.202 47.6723 140.202 46.9388C140.202 45.9656 140.375 45.0796 140.733 44.2952C141.092 43.5108 141.594 42.8427 142.24 42.298C142.886 41.746 143.639 41.3248 144.501 41.027C145.362 40.7292 146.309 40.584 147.328 40.584C148.684 40.584 149.961 40.7946 151.152 41.2086C152.343 41.6225 153.434 42.298 154.424 43.2276L152.544 46.198C151.626 45.4645 150.729 44.927 149.861 44.5857C148.992 44.2443 148.138 44.07 147.285 44.07C146.495 44.07 145.835 44.2443 145.304 44.5857C144.773 44.9343 144.508 45.479 144.508 46.2416C144.508 46.5829 144.579 46.8662 144.701 47.084C144.823 47.3019 145.024 47.5053 145.304 47.6723C145.584 47.8466 145.95 48.0064 146.402 48.1662C146.847 48.3259 147.407 48.493 148.074 48.66C149.322 49.0014 150.392 49.35 151.281 49.6841C152.171 50.0327 152.903 50.4176 153.47 50.8606C154.03 51.3036 154.446 51.812 154.711 52.3858C154.977 52.9595 155.106 53.6495 155.106 54.4629C155.106 56.3439 154.453 57.8327 153.133 58.9221C151.841 60.0043 150.047 60.549 147.787 60.549Z" fill="white"/>
<path d="M164.656 60.549C163.128 60.549 161.649 60.2948 160.186 59.7791C158.729 59.2635 157.488 58.5299 156.447 57.5785L158.177 54.4992C159.282 55.3344 160.365 55.9662 161.413 56.3875C162.467 56.816 163.515 57.0338 164.548 57.0338C165.474 57.0338 166.192 56.845 166.73 56.4819C167.268 56.1187 167.526 55.5886 167.526 54.9059C167.526 54.2159 167.218 53.7221 166.593 53.4025C165.976 53.083 164.957 52.7126 163.551 52.2986C162.374 51.9573 161.362 51.6232 160.53 51.3036C159.705 50.9913 159.03 50.6282 158.521 50.2215C158.012 49.8221 157.646 49.3572 157.416 48.8271C157.186 48.2969 157.072 47.6723 157.072 46.9388C157.072 45.9656 157.244 45.0796 157.603 44.2952C157.961 43.5108 158.464 42.8427 159.109 42.298C159.755 41.746 160.509 41.3248 161.37 41.027C162.231 40.7292 163.178 40.584 164.197 40.584C165.553 40.584 166.83 40.7946 168.021 41.2086C169.212 41.6225 170.303 42.298 171.293 43.2276L169.413 46.198C168.495 45.4645 167.598 44.927 166.73 44.5857C165.861 44.2443 165.008 44.07 164.154 44.07C163.364 44.07 162.704 44.2443 162.173 44.5857C161.642 44.9343 161.377 45.479 161.377 46.2416C161.377 46.5829 161.449 46.8662 161.571 47.084C161.693 47.3019 161.893 47.5053 162.173 47.6723C162.453 47.8466 162.819 48.0064 163.271 48.1662C163.716 48.3259 164.276 48.493 164.943 48.66C166.192 49.0014 167.261 49.35 168.15 49.6841C169.04 50.0327 169.772 50.4176 170.339 50.8606C170.899 51.3036 171.315 51.812 171.58 52.3858C171.846 52.9595 171.975 53.6495 171.975 54.4629C171.975 56.3439 171.322 57.8327 170.002 58.9221C168.71 60.0043 166.916 60.549 164.656 60.549Z" fill="white"/>
<path d="M174.65 38.2672V33.3867H179.3V38.2672H174.65ZM174.65 60.1858V40.9471H179.3V60.1858H174.65Z" fill="white"/>
<path d="M190 60.549C188.471 60.549 186.993 60.2948 185.529 59.7791C184.073 59.2635 182.831 58.5299 181.791 57.5785L183.52 54.4992C184.625 55.3344 185.709 55.9662 186.756 56.3875C187.811 56.816 188.859 57.0338 189.892 57.0338C190.818 57.0338 191.535 56.845 192.073 56.4819C192.612 56.1187 192.87 55.5886 192.87 54.9059C192.87 54.2159 192.561 53.7221 191.937 53.4025C191.32 53.083 190.301 52.7126 188.895 52.2986C187.718 51.9573 186.706 51.6232 185.874 51.3036C185.049 50.9913 184.374 50.6282 183.865 50.2215C183.355 49.8221 182.989 49.3572 182.76 48.8271C182.53 48.2969 182.415 47.6723 182.415 46.9388C182.415 45.9656 182.587 45.0796 182.946 44.2952C183.305 43.5108 183.807 42.8427 184.453 42.298C185.099 41.746 185.852 41.3248 186.713 41.027C187.582 40.7365 188.522 40.584 189.541 40.584C190.897 40.584 192.174 40.7946 193.365 41.2086C194.556 41.6225 195.647 42.298 196.637 43.2276L194.757 46.198C193.839 45.4645 192.942 44.927 192.073 44.5857C191.205 44.2443 190.351 44.07 189.497 44.07C188.708 44.07 188.048 44.2443 187.517 44.5857C186.986 44.9343 186.721 45.479 186.721 46.2416C186.721 46.5829 186.792 46.8662 186.914 47.084C187.036 47.3019 187.237 47.5053 187.517 47.6723C187.797 47.8466 188.163 48.0064 188.615 48.1662C189.06 48.3259 189.619 48.493 190.287 48.66C191.535 49.0014 192.604 49.35 193.494 49.6841C194.384 50.0327 195.116 50.4176 195.683 50.8606C196.242 51.3036 196.659 51.812 196.924 52.3858C197.19 52.9595 197.319 53.6495 197.319 54.4629C197.319 56.3439 196.666 57.8327 195.345 58.9221C194.054 60.0043 192.267 60.549 190 60.549Z" fill="white"/>
<path d="M210.887 59.1903C210.263 59.4808 209.495 59.7786 208.598 60.0691C207.701 60.3669 206.754 60.5121 205.757 60.5121C205.104 60.5121 204.508 60.425 203.941 60.2507C203.374 60.0764 202.879 59.8077 202.449 59.4227C202.018 59.0378 201.688 58.5585 201.43 57.9557C201.172 57.3529 201.05 56.6266 201.05 55.7696V44.7304H198.66V40.9466H201.05V34.708H205.692V40.9466H209.502V44.7304H205.692V54.1283C205.692 54.8182 205.857 55.2976 206.187 55.5808C206.525 55.864 206.934 56.002 207.421 56.002C207.902 56.002 208.376 55.9149 208.835 55.7406C209.301 55.5735 209.667 55.4283 209.947 55.2976L210.887 59.1903Z" fill="white"/>
<path d="M110.502 16.5232H108.909V20.474H108.464V16.5232H106.871V16.1455H110.502V16.5232Z" fill="white"/>
<path d="M114.979 20.4662V16.9148L113.343 19.6601H113.085L111.449 16.9148V20.4662H111.004V16.1377H111.456L113.207 19.1008L114.965 16.1377H115.41V20.4662H114.979Z" fill="white"/>
<path d="M236.34 60.5703L267.001 0L238.801 19.0208" fill="url(#paint0_linear_608_2723)"/>
<path d="M200.785 4.61903L267.001 0L238.801 19.0208" fill="url(#paint1_linear_608_2723)"/>
<path d="M217.641 54.6005L234.051 22.1729L218.954 32.3551" fill="url(#paint2_linear_608_2723)"/>
<path d="M198.604 24.6494L234.05 22.1729L218.953 32.3551" fill="url(#paint3_linear_608_2723)"/>
</g>
<defs>
<linearGradient id="paint0_linear_608_2723" x1="259.471" y1="-3.49784" x2="229.268" y2="54.841" gradientUnits="userSpaceOnUse">
<stop stop-color="#BCBEC0"/>
<stop offset="1" stop-color="white"/>
</linearGradient>
<linearGradient id="paint1_linear_608_2723" x1="266.512" y1="8.57846" x2="203.258" y2="12.8195" gradientUnits="userSpaceOnUse">
<stop stop-color="white"/>
<stop offset="1" stop-color="#BCBEC0"/>
</linearGradient>
<linearGradient id="paint2_linear_608_2723" x1="229.325" y1="20.4947" x2="215.638" y2="52.5145" gradientUnits="userSpaceOnUse">
<stop stop-color="#BCBEC0"/>
<stop offset="1" stop-color="white"/>
</linearGradient>
<linearGradient id="paint3_linear_608_2723" x1="233.283" y1="26.8496" x2="201.041" y2="28.7838" gradientUnits="userSpaceOnUse">
<stop stop-color="white"/>
<stop offset="1" stop-color="#BCBEC0"/>
</linearGradient>
<clipPath id="clip0_608_2723">
<rect width="267" height="68" fill="white"/>
</clipPath>
</defs>
</svg>
