<svg width="330" height="36" viewBox="0 0 330 36" fill="none" xmlns="http://www.w3.org/2000/svg">
<g clip-path="url(#clip0_786_457)">
<path d="M0 35.3892L17.0675 0.567383H26.6706L28.7222 35.3892H21.0397L20.7341 27.6656H10.8254L7.20238 35.3892H0ZM20.0357 7.28738H19.9484L13.4008 22.3419H20.3413L20.0357 7.28738Z" fill="#A93D32"/>
<path d="M37.6705 35.4327H30.3809L37.8015 0.61084H51.2459C56.2221 0.61084 58.7102 3.79629 57.4443 9.73084C56.484 14.1817 54.0396 17.4981 49.1507 18.2836V18.3708C50.7221 18.5454 55.3491 18.9381 53.9959 25.2218C53.5158 27.4472 52.2936 33.9927 52.6428 35.4327H45.484C44.9602 33.2945 45.6586 30.9381 46.1388 28.669C47.0118 24.5236 48.1467 20.989 42.5594 20.989H40.6824L37.6705 35.4327ZM41.9047 15.6654H45.1348C48.0158 15.6654 49.4563 12.7854 49.9364 10.5599C50.6348 7.24357 49.4999 5.97811 47.1864 5.97811H43.9563L41.9047 15.6654Z" fill="#A93D32"/>
<path d="M80.7108 35.3891H70.4529C69.8418 35.3891 69.0997 35.4764 68.3577 35.52C67.6156 35.6073 66.8735 35.6945 66.1751 35.6945C55.3934 35.6945 55.2624 30.0655 57.8378 17.9345C59.7585 8.77091 61.6354 0 73.6394 0C85.6434 0 83.81 8.77091 81.8458 17.9782C80.2743 25.44 78.2227 28.7564 74.818 31.1564L74.9053 31.2436C76.0402 30.9382 78.0918 30.0218 78.8339 30.0218H81.8894L80.7108 35.3891ZM74.4688 17.9782C76.3458 9.03273 76.6513 5.19273 72.5481 5.19273C68.445 5.19273 67.0918 9.03273 65.2148 17.9782C63.3815 26.6618 63.0759 30.5018 67.1791 30.5018C71.2823 30.5455 72.6354 26.6618 74.4688 17.9782Z" fill="#A93D32"/>
<path d="M112.576 0.567383L107.338 25.2656C106.246 30.4583 102.099 35.9565 93.2383 35.9565C85.2066 35.9565 82.2383 31.811 83.6352 25.2656L88.8733 0.567383H96.1629L91.0121 24.7856C90.0955 29.0619 91.5796 30.7637 94.2423 30.7637C97.4288 30.7637 99.3058 28.6256 100.135 24.7856L105.286 0.567383H112.576Z" fill="#A93D32"/>
<path d="M108.123 35.3892L115.544 0.567383H122.833L115.413 35.3892H108.123Z" fill="#A93D32"/>
<path d="M149.023 0.567383L147.801 6.37102H139.682L133.527 35.4328H126.238L132.392 6.37102H124.273L125.496 0.567383H149.023Z" fill="#A93D32"/>
<path d="M144.311 35.3892L151.731 0.567383H170.763L169.628 5.93466H157.886L156.053 14.531H166.878L165.743 19.8983H154.918L152.735 30.0656H164.826L163.691 35.3892H144.311Z" fill="#A93D32"/>
<path d="M169.016 17.9782C170.98 8.77091 172.814 0 184.861 0C192.282 0 194.421 4.10182 192.544 11.5636H185.385C186.389 6.93818 185.909 5.19273 183.726 5.19273C179.623 5.19273 178.27 9.03273 176.393 17.9782C174.516 26.9236 174.211 30.7636 178.314 30.7636C181.675 30.7636 182.461 26.4436 183.159 23.6509H190.318C188.353 32.9455 183.988 35.9564 177.179 35.9564C165.175 36 167.052 27.0982 169.016 17.9782Z" fill="#A93D32"/>
<path d="M218.952 0.567383L217.73 6.37102H209.611L203.456 35.4328H196.167L202.321 6.37102H194.246L195.468 0.567383H218.952Z" fill="#A93D32"/>
<path d="M214.762 17.9782C216.726 8.77091 218.56 0 230.607 0C242.611 0 240.778 8.77091 238.814 17.9782C236.893 27.0982 234.972 35.9564 222.968 35.9564C210.921 36 212.798 27.0982 214.762 17.9782ZM231.393 17.9782C233.27 9.03273 233.575 5.19273 229.472 5.19273C225.369 5.19273 224.016 9.03273 222.139 17.9782C220.262 26.9236 219.956 30.7636 224.06 30.7636C228.163 30.7636 229.516 26.9236 231.393 17.9782Z" fill="#A93D32"/>
<path d="M237.984 35.3892L245.405 0.567383H255.27L259.417 24.6983H259.504L264.611 0.567383H271.421L264 35.3892H254.397L250.294 9.90557H250.207L244.794 35.3892H237.984Z" fill="#A93D32"/>
<path d="M267.535 35.3892L274.956 0.567383H282.245L274.825 35.3892H267.535Z" fill="#A93D32"/>
<path d="M281.721 17.9782C283.686 8.77091 285.563 0 297.566 0C304.987 0 307.126 4.10182 305.249 11.5636H298.09C299.094 6.93818 298.614 5.19273 296.432 5.19273C292.328 5.19273 290.975 9.03273 289.098 17.9782C287.221 26.9236 286.916 30.7636 291.019 30.7636C294.38 30.7636 295.166 26.4436 295.864 23.6509H303.066C301.102 32.9455 296.737 35.9564 289.928 35.9564C277.88 36 279.801 27.0982 281.721 17.9782Z" fill="#A93D32"/>
<path d="M301.277 35.3892L318.345 0.567383H327.948L330 35.3892H322.317L322.011 27.6656H312.103L308.48 35.3892H301.277ZM321.313 7.28738H321.226L314.678 22.3419H321.619L321.313 7.28738Z" fill="#A93D32"/>
</g>
<defs>
<clipPath id="clip0_786_457">
<rect width="330" height="36" fill="white"/>
</clipPath>
</defs>
</svg>
