<svg width="63" height="53" viewBox="0 0 63 53" fill="none" xmlns="http://www.w3.org/2000/svg">
<path d="M29.1964 52.2257C43.3902 52.2257 54.8966 40.7193 54.8966 26.5255C54.8966 12.3316 43.3902 0.825195 29.1964 0.825195C15.0025 0.825195 3.49609 12.3316 3.49609 26.5255C3.49609 40.7193 15.0025 52.2257 29.1964 52.2257Z" fill="#008ECE"/>
<path d="M27.6787 6.0489C27.8379 6.0489 27.9669 5.9199 27.9669 5.76078C27.9669 5.60165 27.8379 5.47266 27.6787 5.47266C27.5196 5.47266 27.3906 5.60165 27.3906 5.76078C27.3906 5.9199 27.5196 6.0489 27.6787 6.0489Z" fill="white"/>
<path d="M30.6358 6.43366C30.7949 6.43366 30.9239 6.30467 30.9239 6.14554C30.9239 5.98642 30.7949 5.85742 30.6358 5.85742C30.4767 5.85742 30.3477 5.98642 30.3477 6.14554C30.3477 6.30467 30.4767 6.43366 30.6358 6.43366Z" fill="white"/>
<path d="M34.5166 11.6588C34.6758 11.6588 34.8048 11.5298 34.8048 11.3706C34.8048 11.2115 34.6758 11.0825 34.5166 11.0825C34.3575 11.0825 34.2285 11.2115 34.2285 11.3706C34.2285 11.5298 34.3575 11.6588 34.5166 11.6588Z" fill="white"/>
<path d="M13.2354 38.5494C13.3945 38.5494 13.5235 38.4204 13.5235 38.2613C13.5235 38.1021 13.3945 37.9731 13.2354 37.9731C13.0763 37.9731 12.9473 38.1021 12.9473 38.2613C12.9473 38.4204 13.0763 38.5494 13.2354 38.5494Z" fill="white"/>
<path d="M13.9834 40.8546C14.1426 40.8546 14.2716 40.7256 14.2716 40.5664C14.2716 40.4073 14.1426 40.2783 13.9834 40.2783C13.8243 40.2783 13.6953 40.4073 13.6953 40.5664C13.6953 40.7256 13.8243 40.8546 13.9834 40.8546Z" fill="white"/>
<path d="M10.4111 38.8227C10.5302 38.8227 10.6269 38.726 10.6269 38.6069C10.6269 38.4877 10.5302 38.3911 10.4111 38.3911C10.2919 38.3911 10.1953 38.4877 10.1953 38.6069C10.1953 38.726 10.2919 38.8227 10.4111 38.8227Z" fill="white"/>
<path d="M22.1266 43.3518C22.2461 43.3518 22.343 43.2549 22.343 43.1354C22.343 43.0158 22.2461 42.9189 22.1266 42.9189C22.007 42.9189 21.9102 43.0158 21.9102 43.1354C21.9102 43.2549 22.007 43.3518 22.1266 43.3518Z" fill="white"/>
<path d="M40.5048 39.5336C40.624 39.5336 40.7206 39.437 40.7206 39.3178C40.7206 39.1987 40.624 39.1021 40.5048 39.1021C40.3857 39.1021 40.2891 39.1987 40.2891 39.3178C40.2891 39.437 40.3857 39.5336 40.5048 39.5336Z" fill="white"/>
<path d="M45.8453 33.7331C45.9648 33.7331 46.0617 33.6362 46.0617 33.5167C46.0617 33.3972 45.9648 33.3003 45.8453 33.3003C45.7258 33.3003 45.6289 33.3972 45.6289 33.5167C45.6289 33.6362 45.7258 33.7331 45.8453 33.7331Z" fill="white"/>
<path d="M19.6708 13.2714C19.79 13.2714 19.8866 13.1748 19.8866 13.0556C19.8866 12.9364 19.79 12.8398 19.6708 12.8398C19.5517 12.8398 19.4551 12.9364 19.4551 13.0556C19.4551 13.1748 19.5517 13.2714 19.6708 13.2714Z" fill="white"/>
<path d="M25.5478 8.954C25.667 8.954 25.7636 8.8574 25.7636 8.73823C25.7636 8.61906 25.667 8.52246 25.5478 8.52246C25.4286 8.52246 25.332 8.61906 25.332 8.73823C25.332 8.8574 25.4286 8.954 25.5478 8.954Z" fill="white"/>
<path d="M24.9072 8.53212C25.0263 8.53212 25.1229 8.43552 25.1229 8.31636C25.1229 8.19719 25.0263 8.10059 24.9072 8.10059C24.788 8.10059 24.6914 8.19719 24.6914 8.31636C24.6914 8.43552 24.788 8.53212 24.9072 8.53212Z" fill="white"/>
<path d="M24.333 8.10976C24.4521 8.10976 24.5487 8.01316 24.5487 7.89399C24.5487 7.77483 24.4521 7.67822 24.333 7.67822C24.2138 7.67822 24.1172 7.77483 24.1172 7.89399C24.1172 8.01316 24.2138 8.10976 24.333 8.10976Z" fill="white"/>
<path d="M20.5908 14.3856C20.7099 14.3856 20.8065 14.289 20.8065 14.1699C20.8065 14.0507 20.7099 13.9541 20.5908 13.9541C20.4716 13.9541 20.375 14.0507 20.375 14.1699C20.375 14.289 20.4716 14.3856 20.5908 14.3856Z" fill="white"/>
<path d="M29.249 3.15371C29.3681 3.15371 29.4647 3.0571 29.4647 2.93794C29.4647 2.81877 29.3681 2.72217 29.249 2.72217C29.1298 2.72217 29.0332 2.81877 29.0332 2.93794C29.0332 3.0571 29.1298 3.15371 29.249 3.15371Z" fill="white"/>
<path d="M30.6708 9.37734C30.79 9.37734 30.8866 9.28074 30.8866 9.16157C30.8866 9.0424 30.79 8.9458 30.6708 8.9458C30.5517 8.9458 30.4551 9.0424 30.4551 9.16157C30.4551 9.28074 30.5517 9.37734 30.6708 9.37734Z" fill="white"/>
<path d="M28.4287 8.16152C28.5478 8.16152 28.6444 8.06492 28.6444 7.94575C28.6444 7.82658 28.5478 7.72998 28.4287 7.72998C28.3095 7.72998 28.2129 7.82658 28.2129 7.94575C28.2129 8.06492 28.3095 8.16152 28.4287 8.16152Z" fill="white"/>
<path d="M24.5849 9.81484C24.7041 9.81484 24.8007 9.71824 24.8007 9.59907C24.8007 9.4799 24.7041 9.3833 24.5849 9.3833C24.4657 9.3833 24.3691 9.4799 24.3691 9.59907C24.3691 9.71824 24.4657 9.81484 24.5849 9.81484Z" fill="white"/>
<path d="M41.5283 45.2338C41.6474 45.2338 41.744 45.1372 41.744 45.018C41.744 44.8989 41.6474 44.8022 41.5283 44.8022C41.4091 44.8022 41.3125 44.8989 41.3125 45.018C41.3125 45.1372 41.4091 45.2338 41.5283 45.2338Z" fill="white"/>
<path d="M12.8707 39.9377C12.9902 39.9377 13.0871 39.8408 13.0871 39.7213C13.0871 39.6018 12.9902 39.5049 12.8707 39.5049C12.7512 39.5049 12.6543 39.6018 12.6543 39.7213C12.6543 39.8408 12.7512 39.9377 12.8707 39.9377Z" fill="white"/>
<path d="M27.8902 42.7229C28.0098 42.7229 28.1066 42.626 28.1066 42.5064C28.1066 42.3869 28.0098 42.29 27.8902 42.29C27.7707 42.29 27.6738 42.3869 27.6738 42.5064C27.6738 42.626 27.7707 42.7229 27.8902 42.7229Z" fill="white"/>
<path d="M17.3414 39.7649C17.4609 39.7649 17.5578 39.668 17.5578 39.5484C17.5578 39.4289 17.4609 39.332 17.3414 39.332C17.2219 39.332 17.125 39.4289 17.125 39.5484C17.125 39.668 17.2219 39.7649 17.3414 39.7649Z" fill="white"/>
<path d="M19.2106 42.8147C19.3301 42.8147 19.427 42.7178 19.427 42.5982C19.427 42.4787 19.3301 42.3818 19.2106 42.3818C19.091 42.3818 18.9941 42.4787 18.9941 42.5982C18.9941 42.7178 19.091 42.8147 19.2106 42.8147Z" fill="white"/>
<path d="M32.9619 40.893C33.081 40.893 33.1776 40.7964 33.1776 40.6772C33.1776 40.558 33.081 40.4614 32.9619 40.4614C32.8427 40.4614 32.7461 40.558 32.7461 40.6772C32.7461 40.7964 32.8427 40.893 32.9619 40.893Z" fill="white"/>
<path d="M40.5439 36.6137C40.6631 36.6137 40.7597 36.5171 40.7597 36.3979C40.7597 36.2787 40.6631 36.1821 40.5439 36.1821C40.4247 36.1821 40.3281 36.2787 40.3281 36.3979C40.3281 36.5171 40.4247 36.6137 40.5439 36.6137Z" fill="white"/>
<path d="M46.29 39.2401C46.4092 39.2401 46.5058 39.1435 46.5058 39.0244C46.5058 38.9052 46.4092 38.8086 46.29 38.8086C46.1708 38.8086 46.0742 38.9052 46.0742 39.0244C46.0742 39.1435 46.1708 39.2401 46.29 39.2401Z" fill="white"/>
<path d="M48.2509 40.4936C48.3701 40.4936 48.4667 40.397 48.4667 40.2778C48.4667 40.1586 48.3701 40.062 48.2509 40.062C48.1318 40.062 48.0352 40.1586 48.0352 40.2778C48.0352 40.397 48.1318 40.4936 48.2509 40.4936Z" fill="white"/>
<path d="M48.5732 37.0751C48.6924 37.0751 48.789 36.9785 48.789 36.8593C48.789 36.7402 48.6924 36.6436 48.5732 36.6436C48.454 36.6436 48.3574 36.7402 48.3574 36.8593C48.3574 36.9785 48.454 37.0751 48.5732 37.0751Z" fill="white"/>
<path d="M19.9912 32.2343C20.1103 32.2343 20.2069 32.1377 20.2069 32.0185C20.2069 31.8993 20.1103 31.8027 19.9912 31.8027C19.872 31.8027 19.7754 31.8993 19.7754 32.0185C19.7754 32.1377 19.872 32.2343 19.9912 32.2343Z" fill="white"/>
<path d="M20.0733 37.2623C20.2324 37.2623 20.3614 37.1333 20.3614 36.9742C20.3614 36.815 20.2324 36.686 20.0733 36.686C19.9142 36.686 19.7852 36.815 19.7852 36.9742C19.7852 37.1333 19.9142 37.2623 20.0733 37.2623Z" fill="white"/>
<path d="M21.7998 40.9127C21.959 40.9127 22.088 40.7837 22.088 40.6245C22.088 40.4654 21.959 40.3364 21.7998 40.3364C21.6407 40.3364 21.5117 40.4654 21.5117 40.6245C21.5117 40.7837 21.6407 40.9127 21.7998 40.9127Z" fill="white"/>
<path d="M42.5069 37.1085C42.666 37.1085 42.795 36.9795 42.795 36.8203C42.795 36.6612 42.666 36.5322 42.5069 36.5322C42.3477 36.5322 42.2188 36.6612 42.2188 36.8203C42.2188 36.9795 42.3477 37.1085 42.5069 37.1085Z" fill="white"/>
<path d="M49.96 36.6871C50.1191 36.6871 50.2481 36.5581 50.2481 36.399C50.2481 36.2398 50.1191 36.1108 49.96 36.1108C49.8009 36.1108 49.6719 36.2398 49.6719 36.399C49.6719 36.5581 49.8009 36.6871 49.96 36.6871Z" fill="white"/>
<path d="M46.2745 35.1114C46.4336 35.1114 46.5626 34.9824 46.5626 34.8233C46.5626 34.6642 46.4336 34.5352 46.2745 34.5352C46.1153 34.5352 45.9863 34.6642 45.9863 34.8233C45.9863 34.9824 46.1153 35.1114 46.2745 35.1114Z" fill="white"/>
<path d="M42.5069 35.2652C42.666 35.2652 42.795 35.1362 42.795 34.9771C42.795 34.818 42.666 34.689 42.5069 34.689C42.3477 34.689 42.2188 34.818 42.2188 34.9771C42.2188 35.1362 42.3477 35.2652 42.5069 35.2652Z" fill="white"/>
<path d="M34.7428 5.58116L35.4592 5.51265L34.7441 5.47231C34.7216 5.33402 34.6109 5.22581 34.4713 5.20789L34.4028 4.49463L34.3618 5.21365C34.2325 5.24246 34.1332 5.35066 34.1172 5.48512L33.3848 5.55171L34.1224 5.5914C34.1492 5.71498 34.2491 5.81166 34.3746 5.83471L34.4412 6.56973L34.4803 5.83599C34.6128 5.81358 34.7178 5.71177 34.7428 5.58116Z" fill="white"/>
<path d="M22.651 13.5577L23.3674 13.4892L22.6523 13.4489C22.6305 13.3106 22.5191 13.2024 22.3795 13.1844L22.311 12.4712L22.2707 13.1902C22.1407 13.219 22.0414 13.3272 22.0254 13.4617L21.293 13.5283L22.0306 13.568C22.0574 13.6915 22.1573 13.7882 22.2828 13.8113L22.3494 14.5463L22.3891 13.8125C22.5216 13.7908 22.6266 13.6883 22.651 13.5577Z" fill="white"/>
<path d="M49.4355 34.6466L50.1519 34.5781L49.4368 34.5377C49.415 34.3994 49.3036 34.2912 49.164 34.2733L49.0955 33.5601L49.0552 34.2791C48.9258 34.3079 48.8266 34.4161 48.8106 34.5506L48.0781 34.6171L48.8157 34.6568C48.8426 34.7804 48.9425 34.8771 49.068 34.9001L49.1346 35.6352L49.1743 34.9014C49.3055 34.8796 49.4105 34.7778 49.4355 34.6466Z" fill="white"/>
<path d="M20.231 45.6738L20.9475 45.6053L20.2323 45.5649C20.2099 45.4266 20.0992 45.3184 19.9596 45.3005L19.8911 44.5879L19.8507 45.3063C19.7208 45.3351 19.6215 45.4433 19.6055 45.5777L18.873 45.6443L19.6106 45.684C19.6375 45.8076 19.7374 45.9049 19.8629 45.9273L19.9295 46.6624L19.9692 45.9286C20.1011 45.9068 20.2067 45.8044 20.231 45.6738Z" fill="white"/>
<path d="M47.1581 40.2945L47.8746 40.226L47.1594 40.1857C47.1377 40.0474 47.0262 39.9392 46.8867 39.9213L46.8182 39.208L46.7778 39.9264C46.6485 39.9552 46.5493 40.0634 46.5332 40.1979L45.8008 40.2644L46.5384 40.3041C46.5653 40.4277 46.6651 40.5244 46.7906 40.5474L46.8572 41.2825L46.8969 40.5487C47.0282 40.5276 47.1338 40.4252 47.1581 40.2945Z" fill="white"/>
<path d="M35.2914 20.37C32.3033 21.5315 29.3888 22.5681 26.9296 23.3377C21.9323 24.9025 8.25943 29.1385 0 34.4783L0.691487 34.7472C5.72398 31.9044 8.99509 31.0112 12.1394 30.022C15.5585 28.9464 26.6114 26.3597 31.6163 24.9511C33.3073 24.4754 35.2876 23.8524 37.3851 23.0943C36.8972 22.4137 36.3825 21.7312 35.8408 21.05C35.6596 20.8201 35.4758 20.5935 35.2914 20.37ZM38.9422 25.4019C38.2187 25.8904 37.6124 26.2803 37.1879 26.5262C34.7293 27.9476 22.7429 36.1302 20.016 38.0125C17.2891 39.8949 9.72051 47.0403 7.49239 49.1147L7.41556 49.9593C14.5993 43.5054 16.8531 41.9137 19.7087 39.7413C23.2429 37.0521 30.5541 32.0773 33.039 30.483C35.4144 28.9592 37.5567 27.5576 39.4794 26.2752C39.4481 26.2227 39.4167 26.1702 39.3853 26.117C39.2406 25.8795 39.0927 25.6413 38.9422 25.4019ZM50.1719 13.5416C46.6722 15.593 41.1563 18.0689 35.8049 20.1696C35.933 20.3265 36.0604 20.4846 36.1872 20.6441C36.7852 21.397 37.3493 22.1551 37.88 22.9138C42.0866 21.3644 46.7023 19.2848 50.3646 16.7679C48.6199 18.4211 42.8517 22.732 39.3347 25.1349C39.5159 25.43 39.6914 25.7252 39.861 26.0191C45.1893 22.4534 48.7748 19.829 50.864 18.074C53.7452 15.6538 60.3143 10.2372 62.8113 2.97656C58.4313 8.54751 53.2528 11.7354 50.1719 13.5416Z" fill="#008ECE"/>
<path d="M25.8882 32.8888C25.3216 32.1756 24.5379 31.2203 23.9495 30.4795C23.1626 29.489 22.4346 28.4883 21.7675 27.4888C21.5498 27.5432 21.3328 27.5977 21.1157 27.6521C21.9212 28.9089 22.8156 30.1638 23.7901 31.3906C24.5021 32.287 25.1494 33.0085 25.481 33.4574C25.5483 33.5483 25.6814 33.7493 25.8614 34.017C26.0688 33.8761 26.2782 33.734 26.4895 33.5905C26.2852 33.3684 26.0835 33.1347 25.8882 32.8888ZM30.0244 36.6433C29.5589 36.2028 28.4301 35.4672 27.2552 34.3633C26.9959 34.5413 26.734 34.7219 26.4715 34.9037C27.2302 35.973 28.2636 37.2862 29.0729 37.669C30.292 38.2466 30.6204 37.208 30.0244 36.6433ZM36.1856 20.6431C29.468 12.1877 21.2617 7.54261 17.7236 10.354C14.9756 12.5373 16.1037 18.9182 19.8915 25.6212C20.0874 25.5539 20.2814 25.488 20.4735 25.4227C16.6505 18.892 15.6043 12.8229 18.1961 10.7631C21.4531 8.17519 29.3175 12.8382 35.8405 21.0484C37.1909 22.7476 38.3779 24.4533 39.3831 26.1161C43.2324 32.4867 44.4137 38.2478 41.754 40.5995C40.9403 41.3192 38.4535 41.6016 35.1958 40.1353C35.1503 40.1923 35.2233 40.3466 35.2803 40.3844C38.0924 41.5151 40.7859 41.946 42.1459 40.8659C45.4138 38.269 42.9033 29.0984 36.1856 20.6431Z" fill="white"/>
<path d="M7.37695 21.6465H11.6795L15.2906 27.7738C15.2906 27.7738 15.2906 23.3368 15.2906 22.991C15.2906 22.4532 14.6088 21.7521 14.3687 21.6465C14.6568 21.6465 17.173 21.6465 17.3459 21.6465C17.1634 21.6945 16.5776 22.4052 16.5776 22.991C16.5776 23.2792 16.5776 29.7138 16.5776 30.0212C16.5776 30.4533 17.2018 31.0488 17.4996 31.2793H13.3506L9.68191 25.1231C9.68191 25.1231 9.68191 29.7138 9.68191 29.9635C9.68191 30.4437 10.1525 30.9047 10.6423 31.2985H7.47299C7.92438 31.1064 8.35656 30.5014 8.39498 30.0212C8.43339 29.541 8.39498 23.3464 8.39498 23.0775C8.39498 22.4916 7.82834 22.0114 7.37695 21.6465Z" fill="white"/>
<path d="M46.7355 31.2783H52.4595C52.1426 31.2015 51.7872 30.8269 51.5951 30.3275C51.4031 29.8281 48.3682 21.6455 48.3682 21.6455H46.1919C45.5747 22.0899 44.9133 22.5585 44.2071 23.0522C44.2052 23.0701 44.2033 23.088 44.2001 23.1053C44.1053 23.6816 42.4022 29.8499 42.2985 30.1546C42.1544 30.5772 41.4149 31.0478 41.1172 31.2975H44.2001C43.8927 30.9518 43.643 30.6156 43.7007 30.2315C43.7583 29.8473 43.9312 29.079 43.9312 29.079H47.1197C47.2637 29.4632 47.3713 29.8083 47.427 30.1354C47.4942 30.5292 47.0909 30.971 46.7355 31.2783ZM44.2193 27.8497L45.2949 24.3346L46.7163 27.8497H44.2193ZM43.7346 21.9964C43.8927 21.8798 44.0515 21.7627 44.2097 21.6455H43.3741C43.4574 21.7223 43.595 21.8434 43.7346 21.9964Z" fill="white"/>
<path d="M21.8413 30.2315C21.8989 29.8473 22.0718 29.079 22.0718 29.079H25.2603C25.4044 29.4632 25.5119 29.8083 25.5676 30.1354C25.6349 30.5292 25.2315 30.971 24.8761 31.2783H29.9157C30.0207 31.2079 30.125 31.1374 30.2294 31.0677C30.0341 30.8948 29.8542 30.6355 29.7358 30.3275C29.5437 29.8281 26.5088 21.6455 26.5088 21.6455H21.5148C21.7548 21.8664 22.4463 22.4618 22.3407 23.1053C22.2466 23.6816 20.5428 29.8499 20.4391 30.1546C20.295 30.5772 19.5555 31.0478 19.2578 31.2975H22.3407C22.0334 30.9518 21.7837 30.6156 21.8413 30.2315ZM23.4355 24.3346L24.8569 27.8497H22.3599L23.4355 24.3346Z" fill="white"/>
<path d="M39.2508 26.4278C38.3109 27.054 37.3191 27.7077 36.2742 28.3902C36.7429 28.6175 37.1162 28.9031 37.152 29.2719C37.2186 29.9647 35.8267 30.2995 34.5685 30.1555C34.3169 30.1266 34.0698 30.0607 33.8341 29.9723C33.5729 30.1407 33.3091 30.3104 33.0415 30.482C32.7694 30.6568 32.439 30.8719 32.0619 31.1203V32.1147C32.3116 31.6249 32.8577 31.1863 33.2816 31.1639C33.4641 31.1543 34.0979 31.7401 36.7102 31.5961C37.9779 31.5263 40.427 30.1747 40.3886 28.6188C40.3655 27.6994 39.8853 26.9823 39.2508 26.4278ZM32.0613 28.8301V29.843C32.2924 29.6887 32.5203 29.537 32.7438 29.3891C32.3923 29.1445 32.1432 28.9159 32.0613 28.8301ZM38.3576 25.792C38.1143 25.648 37.8678 25.5219 37.6316 25.4104C36.4023 24.8342 35.1153 24.7286 34.8464 23.9506C34.6569 23.4019 35.1922 22.8942 36.4983 22.9134C37.8044 22.9326 39.0145 23.7105 39.3411 23.9891V21.5112C39.245 21.6073 38.8237 22.0907 38.4383 22.0106C37.6988 21.857 36.4407 21.6566 35.0001 21.6649C33.3482 21.6745 31.9268 22.9512 31.8788 24.5653C31.8116 26.8222 33.6171 27.4369 34.6351 27.7922C34.7401 27.8287 34.8599 27.8678 34.9898 27.9094C35.9662 27.2743 36.7384 26.7851 37.1904 26.5245C37.4939 26.3497 37.8915 26.0987 38.3576 25.792Z" fill="white"/>
</svg>
