<svg width="211" height="53" viewBox="0 0 211 53" fill="none" xmlns="http://www.w3.org/2000/svg">
<path d="M5.0695 13.1615H2.84441V19.2217H2.22508V13.1615H0V12.5815H5.0695V13.1615Z" fill="#4E4E4F"/>
<path d="M10.8375 12.5815V19.2217H10.2317V16.1174H6.52693V19.2217H5.91211V12.5815H6.52693V15.5375H10.2317V12.5815H10.8375Z" fill="#4E4E4F"/>
<path d="M16.514 18.6418V19.2217H12.3184V12.5815H16.4352V13.1615H12.9332V15.5555H15.987V16.1084H12.9332V18.6418H16.514Z" fill="#4E4E4F"/>
<path d="M19.7441 19.2217V12.5815H22.3836C22.6516 12.5815 22.8993 12.6422 23.1246 12.7636C23.352 12.885 23.5457 13.0446 23.7101 13.2402C23.8745 13.4357 24.0006 13.6605 24.093 13.9078C24.183 14.1573 24.2281 14.4091 24.2281 14.6653C24.2281 14.9081 24.1943 15.1419 24.1267 15.3621C24.0592 15.5847 23.9646 15.7847 23.8452 15.9623C23.7259 16.1399 23.5795 16.2905 23.4106 16.4096C23.2417 16.531 23.048 16.6142 22.8385 16.6592L24.37 19.2217H23.6741L22.2057 16.7716H20.359V19.2217H19.7441ZM20.359 16.1916H22.3994C22.5818 16.1916 22.7485 16.1489 22.8971 16.0657C23.048 15.9826 23.1764 15.8679 23.28 15.7241C23.3858 15.5802 23.4669 15.4183 23.5277 15.2385C23.584 15.0587 23.6155 14.8676 23.6155 14.6676C23.6155 14.4697 23.5817 14.2764 23.5142 14.0921C23.4466 13.9078 23.3543 13.7482 23.2417 13.6111C23.1268 13.4739 22.9917 13.3638 22.8385 13.2829C22.6831 13.202 22.5187 13.1615 22.3498 13.1615H20.359V16.1916Z" fill="#4E4E4F"/>
<path d="M25.4004 19.2217V12.5815H26.0152V19.2217H25.4004Z" fill="#4E4E4F"/>
<path d="M32.0054 18.2482C31.4244 18.9271 30.7555 19.2688 30.0011 19.2688C29.5799 19.2688 29.1881 19.1721 28.8345 18.9788C28.4809 18.7855 28.1701 18.5315 27.9111 18.2123C27.6499 17.8931 27.4472 17.5334 27.2985 17.1311C27.1521 16.7287 27.0801 16.3151 27.0801 15.8925C27.0801 15.4519 27.1499 15.0271 27.2963 14.6224C27.4404 14.2178 27.6409 13.8604 27.8976 13.5502C28.1543 13.2423 28.4606 12.995 28.8142 12.8107C29.1655 12.6263 29.5484 12.5342 29.965 12.5342C30.2691 12.5342 30.5483 12.5701 30.8006 12.6421C31.0528 12.714 31.278 12.8152 31.4739 12.941C31.6699 13.0692 31.841 13.222 31.9852 13.3996C32.1293 13.5794 32.2509 13.7727 32.35 13.984L31.8771 14.3212C31.6721 13.9099 31.4041 13.6064 31.0753 13.4131C30.7465 13.2198 30.3749 13.1231 29.9583 13.1231C29.6115 13.1231 29.3007 13.2018 29.0214 13.3569C28.7421 13.5142 28.5057 13.721 28.3075 13.9796C28.1115 14.2381 27.9607 14.5348 27.8548 14.8675C27.7512 15.2024 27.6949 15.5463 27.6949 15.9015C27.6949 16.2769 27.758 16.632 27.8773 16.967C27.9967 17.3041 28.1633 17.5986 28.375 17.8526C28.5867 18.1044 28.8322 18.3067 29.116 18.455C29.3998 18.6034 29.7105 18.6776 30.0461 18.6776C30.4019 18.6776 30.7443 18.5899 31.0686 18.4123C31.3929 18.2325 31.7059 17.9515 32.0054 17.5649V16.4612H30.6159V15.9554H32.5257V19.2193H32.0054V18.2482Z" fill="#4E4E4F"/>
<path d="M38.6285 12.5815V19.2217H38.0227V16.1174H34.318V19.2217H33.7031V12.5815H34.318V15.5375H38.0227V12.5815H38.6285Z" fill="#4E4E4F"/>
<path d="M44.5399 13.1615H42.3148V19.2217H41.6977V13.1615H39.4727V12.5815H44.5422V13.1615H44.5399Z" fill="#4E4E4F"/>
<path d="M51.9928 17.5089C51.9928 17.7584 51.9455 17.9876 51.8532 18.1967C51.7586 18.4057 51.6347 18.5856 51.4748 18.7407C51.3149 18.8935 51.1303 19.0104 50.9208 19.0958C50.7114 19.1813 50.4839 19.2217 50.2429 19.2217H47.2949V12.5815H50.3015C50.5199 12.5815 50.7159 12.631 50.8915 12.7321C51.065 12.8311 51.2158 12.9614 51.3397 13.121C51.4613 13.2806 51.5582 13.4605 51.6257 13.665C51.6933 13.8673 51.7271 14.0719 51.7271 14.2787C51.7271 14.6159 51.646 14.9216 51.4906 15.1981C51.3307 15.4745 51.11 15.6836 50.8285 15.8207C51.1888 15.9331 51.4681 16.1422 51.6775 16.4479C51.887 16.7491 51.9928 17.1042 51.9928 17.5089ZM47.9097 13.1525V15.6027H50.0583C50.2092 15.6027 50.3533 15.5689 50.4862 15.4993C50.6168 15.4296 50.7316 15.3397 50.824 15.2273C50.9186 15.1149 50.9906 14.9868 51.0424 14.8384C51.0965 14.6923 51.1235 14.5372 51.1235 14.3753C51.1235 14.2067 51.0965 14.0471 51.0469 13.8988C50.9974 13.7504 50.9276 13.6201 50.8352 13.5099C50.7452 13.3998 50.6371 13.3121 50.5154 13.2492C50.3916 13.184 50.2542 13.1503 50.1101 13.1503H47.9097V13.1525ZM51.378 17.3987C51.378 17.2346 51.351 17.0795 51.2969 16.9244C51.2451 16.7716 51.1685 16.6389 51.074 16.5243C50.9771 16.4096 50.8623 16.3152 50.7294 16.2433C50.5988 16.1714 50.4569 16.1354 50.3015 16.1354H47.9097V18.6508H50.2429C50.4028 18.6508 50.547 18.617 50.6866 18.5474C50.8262 18.4777 50.9478 18.3878 51.0492 18.2709C51.1505 18.154 51.2316 18.0214 51.2924 17.8685C51.3465 17.7179 51.378 17.5606 51.378 17.3987Z" fill="#4E4E4F"/>
<path d="M54.8683 12.5815H55.3885L57.9807 19.2217H57.3299L56.5191 17.1469H53.713L52.9135 19.2217H52.2559L54.8683 12.5815ZM56.3817 16.6299L55.125 13.3481L53.8504 16.6299H56.3817Z" fill="#4E4E4F"/>
<path d="M58.1523 15.8541C58.1523 15.4539 58.2177 15.0583 58.3505 14.6627C58.4834 14.2671 58.6726 13.9142 58.9248 13.5995C59.1771 13.287 59.4901 13.0353 59.8572 12.8374C60.2265 12.6396 60.6454 12.543 61.1161 12.543C61.6724 12.543 62.1498 12.6778 62.5462 12.9431C62.9426 13.2106 63.2331 13.5612 63.42 13.9906L62.9358 14.3098C62.8367 14.0917 62.7151 13.9074 62.571 13.7568C62.4268 13.6085 62.2737 13.4871 62.1093 13.3927C61.9426 13.2983 61.7737 13.2331 61.5981 13.1926C61.4201 13.1521 61.249 13.1319 61.0778 13.1319C60.704 13.1319 60.3729 13.2128 60.0824 13.3747C59.7964 13.5365 59.5532 13.7478 59.3595 14.0086C59.1613 14.2716 59.0126 14.566 58.9136 14.8942C58.8145 15.2224 58.7627 15.5529 58.7627 15.89C58.7627 16.2587 58.8257 16.6093 58.9451 16.9465C59.0644 17.2837 59.2289 17.5804 59.436 17.8412C59.6432 18.0997 59.891 18.3042 60.1747 18.4571C60.4585 18.6099 60.7693 18.6864 61.1026 18.6864C61.2805 18.6864 61.4584 18.6639 61.6431 18.6167C61.8278 18.5717 62.0079 18.4953 62.1791 18.3919C62.3525 18.2885 62.5124 18.1626 62.6588 18.0098C62.8074 17.8569 62.9291 17.6726 63.0281 17.4523L63.5394 17.7333C63.4403 17.9828 63.3007 18.2031 63.1182 18.3919C62.9358 18.583 62.7354 18.7426 62.5124 18.8752C62.2895 19.0056 62.0552 19.1045 61.8053 19.1742C61.5553 19.2438 61.3098 19.2776 61.0711 19.2776C60.6409 19.2776 60.2491 19.1786 59.891 18.9786C59.5351 18.7785 59.2243 18.5178 58.9676 18.1986C58.7109 17.8771 58.5104 17.513 58.3663 17.1039C58.2222 16.6948 58.1523 16.2767 58.1523 15.8541Z" fill="#4E4E4F"/>
<path d="M64.5117 19.2217V12.5905H65.1265V16.4434L68.5678 12.5815H69.2456L66.694 15.4993L69.3763 19.2217H68.6984L66.3066 15.8837L65.1265 17.1829V19.2217H64.5117Z" fill="#4E4E4F"/>
<path d="M72.612 18.6777C73.0061 18.6777 73.3304 18.5991 73.5939 18.4395C73.8552 18.2799 74.0623 18.0708 74.2177 17.8123C74.3709 17.5538 74.4812 17.2593 74.542 16.9289C74.6029 16.5985 74.6321 16.2658 74.6321 15.9286V12.5815H75.2492V15.9286C75.2492 16.3759 75.2019 16.803 75.1096 17.2054C75.0172 17.6078 74.8641 17.9607 74.6569 18.2664C74.4497 18.5721 74.175 18.8149 73.8416 18.9969C73.5083 19.179 73.1007 19.2689 72.6188 19.2689C72.1278 19.2689 71.7134 19.1723 71.3733 18.9834C71.0378 18.7924 70.7653 18.5429 70.5603 18.2304C70.3554 17.918 70.2067 17.5628 70.1212 17.1649C70.0333 16.7648 69.9883 16.3534 69.9883 15.9309V12.5815H70.5941V15.9286C70.5941 16.277 70.6256 16.6164 70.6909 16.9469C70.7563 17.2773 70.8644 17.5718 71.022 17.8258C71.1774 18.0821 71.3846 18.2866 71.6413 18.444C71.9003 18.6013 72.2246 18.6777 72.612 18.6777Z" fill="#4E4E4F"/>
<path d="M76.6348 19.2217V12.5815H79.2202C79.4904 12.5815 79.7382 12.6422 79.9656 12.7636C80.1886 12.885 80.3845 13.0446 80.5489 13.2402C80.7156 13.4357 80.844 13.6605 80.9363 13.9078C81.0309 14.1573 81.0759 14.4091 81.0759 14.6653C81.0759 14.9395 81.0309 15.2025 80.9453 15.4566C80.8575 15.7083 80.7313 15.9309 80.576 16.1242C80.4161 16.3175 80.2269 16.4748 80.0084 16.5917C79.7877 16.7109 79.5422 16.7693 79.2742 16.7693H77.2496V19.2195H76.6348V19.2217ZM77.2496 16.1916H79.2472C79.4296 16.1916 79.5963 16.1489 79.7449 16.0657C79.8958 15.9826 80.0242 15.8702 80.1278 15.7285C80.2336 15.5869 80.3147 15.4251 80.3755 15.243C80.4318 15.0587 80.4633 14.8676 80.4633 14.6676C80.4633 14.463 80.4296 14.2674 80.362 14.0831C80.2944 13.8988 80.2021 13.7392 80.0895 13.5998C79.9746 13.4627 79.8395 13.3548 79.6864 13.2784C79.531 13.1997 79.3666 13.1615 79.1977 13.1615H77.2518V16.1916H77.2496Z" fill="#4E4E4F"/>
<path d="M14.6162 41.6687C14.6162 42.4329 14.4743 43.132 14.1815 43.7704C13.891 44.4088 13.4969 44.9618 13.0014 45.4293C12.506 45.8969 11.9317 46.261 11.2808 46.5151C10.6232 46.7736 9.91828 46.9017 9.17284 46.9017H0V26.5923H9.36426C10.0354 26.5923 10.6525 26.7429 11.193 27.0508C11.7425 27.3566 12.2087 27.7499 12.5893 28.2377C12.9766 28.7233 13.2739 29.2762 13.4834 29.8966C13.6928 30.5148 13.7942 31.1419 13.7942 31.7713C13.7942 32.8009 13.5509 33.7405 13.0555 34.5879C12.56 35.4399 11.8754 36.0715 11.0015 36.4919C12.1118 36.8358 12.9947 37.4742 13.6433 38.4093C14.2919 39.3399 14.6162 40.4279 14.6162 41.6687ZM1.9188 28.3366V35.831H8.6008C9.07599 35.831 9.51516 35.7276 9.92954 35.5185C10.3372 35.3072 10.6885 35.0307 10.979 34.6868C11.2695 34.3429 11.5015 33.9495 11.6637 33.5C11.8258 33.0526 11.9069 32.5806 11.9069 32.0838C11.9069 31.569 11.8326 31.0858 11.6772 30.6272C11.5218 30.1686 11.3056 29.773 11.0196 29.4403C10.7358 29.1076 10.4025 28.8379 10.0241 28.6401C9.63677 28.4378 9.21788 28.3366 8.76295 28.3366H1.9188ZM12.7064 41.3247C12.7064 40.8302 12.6186 40.3447 12.4564 39.8771C12.2943 39.4118 12.0623 39.0027 11.7583 38.6498C11.461 38.2969 11.1006 38.0114 10.6953 37.7911C10.2809 37.5731 9.84171 37.4607 9.36652 37.4607H1.9188V45.1551H9.17509C9.6638 45.1551 10.1232 45.0517 10.5579 44.8426C10.9858 44.6314 11.3574 44.3504 11.6749 43.9975C11.9925 43.6445 12.2447 43.2332 12.4271 42.7656C12.6096 42.2981 12.7064 41.8193 12.7064 41.3247Z" fill="#4E4E4F"/>
<path d="M21.1636 47.1899C20.4857 47.1899 19.8619 47.073 19.2876 46.8325C18.7178 46.5942 18.2111 46.2638 17.7832 45.8434C17.3553 45.4253 17.0242 44.9353 16.7878 44.3688C16.5513 43.8068 16.4297 43.2022 16.4297 42.5548C16.4297 41.9052 16.5783 41.3027 16.8711 40.752C17.1616 40.1968 17.576 39.7225 18.1053 39.3224C18.6345 38.9222 19.2651 38.612 19.988 38.3895C20.72 38.1715 21.5262 38.0636 22.4 38.0636C23.1252 38.0636 23.8707 38.1265 24.6161 38.2614C25.3615 38.3962 26.0327 38.5873 26.616 38.8323V37.4859C26.616 36.1709 26.2579 35.1279 25.5462 34.3546C24.8346 33.5836 23.8526 33.1969 22.5915 33.1969C21.8595 33.1969 21.1141 33.3476 20.3484 33.6555C19.5826 33.9635 18.8034 34.3996 18.0242 34.9705L17.3666 33.6847C19.2088 32.3855 20.9925 31.7358 22.7266 31.7358C24.5148 31.7358 25.9178 32.2596 26.9425 33.3093C27.965 34.3591 28.474 35.809 28.474 37.6567V44.3823C28.474 44.9128 28.7037 45.1825 29.1586 45.1825V46.8976C28.8546 46.9538 28.6158 46.9853 28.4469 46.9853C27.9717 46.9853 27.6069 46.8617 27.3434 46.6122C27.0799 46.3627 26.9358 46.021 26.9155 45.5827L26.8614 44.4093C26.2038 45.3084 25.3773 45.994 24.3886 46.4683C23.3864 46.9494 22.3144 47.1899 21.1636 47.1899ZM21.6028 45.7018C22.5644 45.7018 23.4585 45.5107 24.2648 45.1308C25.0778 44.7464 25.6949 44.2429 26.1137 43.6135C26.2759 43.4427 26.4043 43.2561 26.4853 43.0561C26.5664 42.8582 26.607 42.6717 26.607 42.5008V40.0687C25.9831 39.8191 25.339 39.6281 24.6747 39.4977C24.0103 39.3628 23.3256 39.2954 22.6342 39.2954C21.319 39.2954 20.256 39.5809 19.4363 40.1541C18.6097 40.725 18.2021 41.4803 18.2021 42.4154C18.2021 42.874 18.2899 43.3033 18.4588 43.7034C18.6345 44.1036 18.8732 44.4497 19.1705 44.7464C19.4745 45.0432 19.8349 45.2747 20.2538 45.4455C20.6817 45.6141 21.1298 45.7018 21.6028 45.7018Z" fill="#4E4E4F"/>
<path d="M31.2324 39.4077C31.2324 38.3579 31.4013 37.3689 31.7482 36.4338C32.0927 35.4987 32.5814 34.6849 33.212 33.9881C33.8426 33.2913 34.5948 32.7428 35.4754 32.3427C36.3492 31.9425 37.3176 31.7402 38.3761 31.7402C39.7251 31.7402 40.903 32.0594 41.9074 32.7001C42.9096 33.3385 43.6686 34.2039 44.1775 35.2896L42.3691 35.8875C41.9682 35.1278 41.4074 34.5276 40.689 34.1005C39.9706 33.6689 39.1711 33.4576 38.2973 33.4576C37.5653 33.4576 36.8875 33.6082 36.2569 33.9162C35.6263 34.2196 35.0768 34.6355 34.6106 35.157C34.1489 35.6807 33.7841 36.3079 33.5206 37.0317C33.2571 37.7578 33.1197 38.549 33.1197 39.4077C33.1197 40.2484 33.2548 41.0396 33.5341 41.7837C33.8043 42.5277 34.1782 43.1706 34.6511 43.7146C35.1263 44.2563 35.6803 44.6879 36.3109 45.0026C36.9415 45.315 37.6126 45.4746 38.3243 45.4746C38.7792 45.4746 39.2319 45.4072 39.6801 45.2723C40.1282 45.142 40.5404 44.9531 40.921 44.7171C41.3083 44.4788 41.6327 44.2069 41.9097 43.8989C42.1799 43.5954 42.3713 43.2695 42.4862 42.9256L44.3149 43.4965C44.119 44.0315 43.8195 44.5216 43.4411 44.9711C43.0537 45.4185 42.6078 45.8118 42.0853 46.1445C41.5628 46.4772 40.9886 46.7334 40.3647 46.9155C39.7341 47.0976 39.0765 47.1875 38.4054 47.1875C37.3627 47.1875 36.4055 46.983 35.5317 46.5716C34.6511 46.1602 33.8989 45.5983 33.2548 44.8857C32.6175 44.1686 32.1243 43.3459 31.7639 42.4086C31.4081 41.4757 31.2324 40.4777 31.2324 39.4077Z" fill="#4E4E4F"/>
<path d="M57.1441 46.9041L51.8922 39.2681L48.8293 42.242V46.9041H46.9668V26.0215H48.8293V40.2077L56.8446 32.0255H58.9525L53.1241 38.1217L59.1687 46.9018H57.1441V46.9041Z" fill="#4E4E4F"/>
<path d="M65.6627 47.1893C64.111 47.1893 62.9579 46.652 62.1989 45.5753C61.4467 44.4963 61.0684 42.8914 61.0684 40.7536V32.0005H62.9241V40.412C62.9241 43.786 64.0276 45.4741 66.2369 45.4741C66.7865 45.4741 67.3202 45.3797 67.8495 45.1887C68.3787 44.9976 68.8652 44.7211 69.3133 44.357C69.7615 43.9973 70.1669 43.5657 70.5205 43.0712C70.8786 42.5722 71.1646 42.0124 71.3808 41.383V32.0005H73.2433V44.3884C73.2433 44.9189 73.4595 45.1887 73.9009 45.1887V46.9038C73.6847 46.9398 73.5 46.96 73.3649 46.96C73.2298 46.96 73.1352 46.96 73.0811 46.96C72.6397 46.9398 72.2884 46.7779 72.0114 46.4722C71.7411 46.1687 71.6037 45.7596 71.6037 45.2449V43.5297C70.9799 44.6896 70.1399 45.591 69.0701 46.2317C68.0071 46.8701 66.8675 47.1893 65.6627 47.1893Z" fill="#4E4E4F"/>
<path d="M84.4582 47.1898C83.2578 47.1898 82.1948 46.8706 81.2737 46.2299C80.3526 45.5915 79.6072 44.7868 79.0441 43.8135V52.9937H77.1816V31.9987H78.8482V34.8895C79.4315 33.9544 80.1905 33.1968 81.1251 32.6147C82.053 32.0325 83.0642 31.7402 84.1609 31.7402C85.1429 31.7402 86.0504 31.956 86.8725 32.3854C87.6922 32.8125 88.4039 33.3857 89.0075 34.1005C89.611 34.8131 90.0772 35.6403 90.4173 36.5731C90.7551 37.5082 90.9263 38.4703 90.9263 39.4639C90.9263 40.5136 90.7709 41.5049 90.4578 42.4423C90.147 43.3751 89.7056 44.1956 89.1291 44.9014C88.5525 45.6073 87.8679 46.1625 87.0752 46.5739C86.2824 46.983 85.4086 47.1898 84.4582 47.1898ZM83.9447 45.4724C84.7104 45.4724 85.4086 45.3016 86.0392 44.9576C86.663 44.6137 87.2058 44.1597 87.6517 43.5977C88.0999 43.0357 88.4377 42.3973 88.6742 41.6803C88.9106 40.9677 89.0322 40.2259 89.0322 39.4639C89.0322 38.6636 88.8971 37.8994 88.6179 37.1756C88.3476 36.4517 87.9737 35.8134 87.5008 35.2581C87.0256 34.7074 86.4648 34.2691 85.814 33.9431C85.1699 33.6194 84.4717 33.4576 83.7195 33.4576C83.2443 33.4576 82.7511 33.5543 82.2286 33.7566C81.7061 33.9544 81.2264 34.2241 80.7783 34.5568C80.3301 34.8895 79.945 35.2806 79.6252 35.7302C79.3076 36.1775 79.1094 36.6496 79.0419 37.1441V41.723C79.2581 42.258 79.5374 42.7525 79.8752 43.2111C80.213 43.6696 80.5936 44.0652 81.0192 44.3979C81.4539 44.7306 81.9133 44.9936 82.402 45.1847C82.8998 45.3802 83.4087 45.4724 83.9447 45.4724Z" fill="#4E4E4F"/>
<path d="M99.2993 26.5923H102.639L110.026 46.9017H106.143L104.335 41.8395H97.5449L95.7702 46.9017H91.8809L99.2993 26.5923ZM103.65 39.0634L100.966 31.0835L98.1733 39.0634H103.65Z" fill="#4E4E4F"/>
<path d="M116.791 47.1892C115.584 47.1892 114.413 46.9914 113.259 46.5867C112.106 46.1866 111.124 45.6134 110.305 44.8716L111.674 42.4687C112.548 43.1183 113.401 43.6083 114.228 43.9433C115.061 44.276 115.888 44.4445 116.707 44.4445C117.439 44.4445 118.009 44.3007 118.428 44.013C118.849 43.7275 119.059 43.3161 119.059 42.7856C119.059 42.2506 118.815 41.8595 118.32 41.6122C117.831 41.3627 117.025 41.0772 115.915 40.7536C114.987 40.4883 114.187 40.2298 113.53 39.9803C112.879 39.7353 112.343 39.452 111.944 39.1351C111.543 38.8226 111.253 38.4585 111.07 38.0494C110.888 37.638 110.8 37.148 110.8 36.5748C110.8 35.815 110.935 35.1272 111.221 34.5157C111.505 33.9066 111.899 33.3851 112.415 32.958C112.924 32.5264 113.518 32.1982 114.203 31.9689C114.888 31.7396 115.633 31.625 116.439 31.625C117.509 31.625 118.52 31.7891 119.462 32.1128C120.403 32.4365 121.263 32.9602 122.049 33.6863L120.565 36.0016C119.84 35.4306 119.128 35.0125 118.444 34.7428C117.759 34.4775 117.081 34.3427 116.41 34.3427C115.786 34.3427 115.266 34.4775 114.845 34.7428C114.424 35.0125 114.214 35.4396 114.214 36.0308C114.214 36.296 114.268 36.5163 114.37 36.6872C114.464 36.858 114.627 37.0131 114.845 37.1457C115.068 37.2806 115.354 37.4087 115.712 37.5324C116.063 37.656 116.505 37.7841 117.034 37.919C118.023 38.1843 118.863 38.454 119.568 38.7192C120.273 38.989 120.849 39.2902 121.295 39.6341C121.736 39.978 122.067 40.3737 122.277 40.821C122.486 41.2683 122.588 41.8078 122.588 42.4394C122.588 43.9073 122.072 45.0627 121.029 45.9146C119.996 46.7643 118.579 47.1892 116.791 47.1892Z" fill="#4E4E4F"/>
<path d="M130.119 47.1892C128.912 47.1892 127.741 46.9914 126.588 46.5867C125.434 46.1866 124.453 45.6134 123.633 44.8716L125.002 42.4687C125.876 43.1183 126.729 43.6083 127.556 43.9433C128.389 44.276 129.216 44.4445 130.036 44.4445C130.767 44.4445 131.337 44.3007 131.756 44.013C132.177 43.7275 132.387 43.3161 132.387 42.7856C132.387 42.2506 132.144 41.8595 131.648 41.6122C131.159 41.3627 130.353 41.0772 129.243 40.7536C128.315 40.4883 127.515 40.2298 126.858 39.9803C126.207 39.7353 125.671 39.452 125.272 39.1351C124.871 38.8226 124.581 38.4585 124.399 38.0494C124.216 37.638 124.128 37.148 124.128 36.5748C124.128 35.815 124.263 35.1272 124.549 34.5157C124.833 33.9066 125.227 33.3851 125.743 32.958C126.252 32.5264 126.847 32.1982 127.531 31.9689C128.216 31.7396 128.961 31.625 129.768 31.625C130.837 31.625 131.848 31.7891 132.79 32.1128C133.731 32.4365 134.592 32.9602 135.378 33.6863L133.893 36.0016C133.168 35.4306 132.457 35.0125 131.772 34.7428C131.087 34.4775 130.409 34.3427 129.738 34.3427C129.114 34.3427 128.594 34.4775 128.173 34.7428C127.752 35.0125 127.542 35.4396 127.542 36.0308C127.542 36.296 127.597 36.5163 127.698 36.6872C127.792 36.858 127.955 37.0131 128.173 37.1457C128.396 37.2806 128.682 37.4087 129.04 37.5324C129.391 37.656 129.833 37.7841 130.362 37.919C131.351 38.1843 132.191 38.454 132.896 38.7192C133.601 38.989 134.177 39.2902 134.623 39.6341C135.065 39.978 135.396 40.3737 135.605 40.821C135.814 41.2683 135.916 41.8078 135.916 42.4394C135.916 43.9073 135.4 45.0627 134.357 45.9146C133.324 46.7643 131.909 47.1892 130.119 47.1892Z" fill="#4E4E4F"/>
<path d="M138.02 29.8271V26.0215H141.693V29.8271H138.02ZM138.02 46.9041V31.9131H141.693V46.9041H138.02Z" fill="#4E4E4F"/>
<path d="M150.148 47.1892C148.941 47.1892 147.77 46.9914 146.617 46.5867C145.464 46.1866 144.482 45.6134 143.662 44.8716L145.031 42.4687C145.905 43.1183 146.759 43.6083 147.585 43.9433C148.419 44.276 149.245 44.4445 150.065 44.4445C150.797 44.4445 151.367 44.3007 151.785 44.013C152.207 43.7275 152.416 43.3161 152.416 42.7856C152.416 42.2506 152.173 41.8595 151.677 41.6122C151.189 41.3627 150.382 41.0772 149.272 40.7536C148.344 40.4883 147.545 40.2298 146.887 39.9803C146.236 39.7353 145.7 39.452 145.302 39.1351C144.901 38.8226 144.61 38.4585 144.428 38.0494C144.245 37.638 144.158 37.148 144.158 36.5748C144.158 35.815 144.293 35.1272 144.579 34.5157C144.862 33.9066 145.257 33.3851 145.772 32.958C146.281 32.5264 146.876 32.1982 147.561 31.9689C148.245 31.7396 148.991 31.625 149.797 31.625C150.867 31.625 151.878 31.7891 152.819 32.1128C153.761 32.4365 154.621 32.9602 155.407 33.6863L153.923 36.0016C153.198 35.4306 152.486 35.0125 151.801 34.7428C151.117 34.4775 150.439 34.3427 149.768 34.3427C149.144 34.3427 148.623 34.4775 148.202 34.7428C147.781 35.0125 147.572 35.4396 147.572 36.0308C147.572 36.296 147.626 36.5163 147.727 36.6872C147.822 36.858 147.984 37.0131 148.202 37.1457C148.425 37.2806 148.711 37.4087 149.069 37.5324C149.421 37.656 149.862 37.7841 150.391 37.919C151.38 38.1843 152.22 38.454 152.925 38.7192C153.63 38.989 154.206 39.2902 154.652 39.6341C155.094 39.978 155.425 40.3737 155.634 40.821C155.844 41.2683 155.945 41.8078 155.945 42.4394C155.945 43.9073 155.429 45.0627 154.387 45.9146C153.355 46.7643 151.939 47.1892 150.148 47.1892Z" fill="#4E4E4F"/>
<path d="M166.656 46.1286C166.16 46.3579 165.559 46.5872 164.847 46.8142C164.136 47.0458 163.39 47.1604 162.604 47.1604C162.088 47.1604 161.615 47.093 161.167 46.9581C160.719 46.8232 160.327 46.6119 159.987 46.3152C159.649 46.0185 159.384 45.6386 159.181 45.1711C158.978 44.7035 158.884 44.1348 158.884 43.4694V34.8579H156.994V31.9109H158.884V27.0488H162.55V31.9109H165.559V34.8579H162.55V42.1814C162.55 42.7164 162.678 43.094 162.944 43.3121C163.21 43.5301 163.534 43.6425 163.919 43.6425C164.298 43.6425 164.672 43.5751 165.036 43.4402C165.401 43.3098 165.694 43.1952 165.917 43.0963L166.656 46.1286Z" fill="#4E4E4F"/>
<path d="M87.3246 12.8755H86.0634V15.9528H85.7143V12.8755H84.4531V12.5811H87.3246V12.8755Z" fill="#4E4E4F"/>
<path d="M90.8595 15.9528V13.1835L89.5691 15.3257H89.3641L88.0737 13.1835V15.9528H87.7246V12.5811H88.0827L89.4632 14.8896L90.855 12.5811H91.2086V15.9528H90.8595Z" fill="#4E4E4F"/>
<path d="M186.77 47.2075L211 0.00244141L188.711 14.8271" fill="url(#paint0_linear_824_332)"/>
<path d="M158.67 3.60351L211 0.00244141L188.711 14.8271" fill="url(#paint1_linear_824_332)"/>
<path d="M171.99 42.5499L184.96 17.2817L173.028 25.2167" fill="url(#paint2_linear_824_332)"/>
<path d="M156.949 19.2104L184.961 17.2817L173.029 25.2167" fill="url(#paint3_linear_824_332)"/>
<defs>
<linearGradient id="paint0_linear_824_332" x1="205.049" y1="-2.72364" x2="181.702" y2="43.0061" gradientUnits="userSpaceOnUse">
<stop stop-color="#282561"/>
<stop offset="1" stop-color="#008ECE"/>
</linearGradient>
<linearGradient id="paint1_linear_824_332" x1="210.613" y1="6.68748" x2="160.633" y2="10.0856" gradientUnits="userSpaceOnUse">
<stop stop-color="#008ECE"/>
<stop offset="1" stop-color="#282561"/>
</linearGradient>
<linearGradient id="paint2_linear_824_332" x1="181.225" y1="15.9738" x2="170.662" y2="41.0335" gradientUnits="userSpaceOnUse">
<stop stop-color="#282561"/>
<stop offset="1" stop-color="#008ECE"/>
</linearGradient>
<linearGradient id="paint3_linear_824_332" x1="184.354" y1="20.9262" x2="158.877" y2="22.476" gradientUnits="userSpaceOnUse">
<stop stop-color="#008ECE"/>
<stop offset="1" stop-color="#282561"/>
</linearGradient>
</defs>
</svg>
