<svg width="33" height="21" viewBox="0 0 33 21" fill="none" xmlns="http://www.w3.org/2000/svg">
<rect width="33" height="21" fill="black"/>
<rect width="33" height="21" fill="#244453"/>
<path d="M33 0H0V21H33V0Z" fill="#180087"/>
<path d="M8.67271 12.8647L9.18989 14.5569L10.7215 13.9278L9.80652 15.4247L11.2188 16.3358L9.58772 16.4877L9.80652 18.2666L8.67271 16.965L7.55878 18.2666L7.77759 16.4877L6.14648 16.3358L7.55878 15.4247L6.64377 13.9278L8.17542 14.5569L8.67271 12.8647Z" fill="white"/>
<path d="M26.0376 15.9238L26.2763 16.7265L27.0123 16.4445L26.5747 17.1387L27.251 17.5726L26.4752 17.6594L26.5747 18.5054L26.0376 17.8763L25.5005 18.5054L25.6 17.6594L24.8242 17.5726L25.5005 17.1387L25.0629 16.4445L25.7989 16.7265L26.0376 15.9238Z" fill="white"/>
<path d="M21.7017 8.43896L21.9404 9.24165L22.6764 8.93793L22.2387 9.65384L22.915 10.0877L22.1393 10.1528L22.2387 10.9989L21.7017 10.3914L21.1646 10.9989L21.2641 10.1528L20.4883 10.0877L21.1646 9.65384L20.727 8.93793L21.463 9.24165L21.7017 8.43896Z" fill="white"/>
<path d="M26.0376 3.29736L26.2763 4.12174L27.0123 3.81802L26.5747 4.51224L27.251 4.96782L26.4752 5.0329L26.5747 5.87898L26.0376 5.24984L25.5005 5.87898L25.6 5.0329L24.8242 4.96782L25.5005 4.51224L25.0629 3.81802L25.7989 4.12174L26.0376 3.29736Z" fill="white"/>
<path d="M29.897 7.15918L30.1357 7.98356L30.8717 7.67984L30.434 8.39575L31.1104 8.82963L30.3346 8.89472L30.434 9.74079L29.897 9.13335L29.3599 9.74079L29.4594 8.89472L28.6836 8.82963L29.3599 8.39575L28.9223 7.67984L29.6583 7.98356L29.897 7.15918Z" fill="white"/>
<path d="M27.7681 10.9556L27.967 11.4762L28.4643 11.5196L28.0864 11.8667L28.2057 12.3874L27.7681 12.1054L27.3504 12.3874L27.4697 11.8667L27.0918 11.5196L27.5891 11.4762L27.7681 10.9556Z" fill="white"/>
<path d="M7.24051 0V3.14566H0V6.31302H7.24051V9.45868H10.1248V6.31302H17.3653V3.14566H10.1248V0H7.24051Z" fill="white"/>
<path d="M0 0V1.06302L15.4159 9.45868H17.3653V8.41736L1.94937 0H0Z" fill="white"/>
<path d="M15.4159 0L0 8.41736V9.45868H1.94937L17.3653 1.06302V0H15.4159Z" fill="white"/>
<path d="M7.81736 0V3.79649H0V5.68388H7.81736V9.45868H9.54792V5.68388H17.3653V3.79649H9.54792V0H7.81736Z" fill="#EA0020"/>
<path d="M0 0V0.715909L4.49548 3.16736H5.78843L0 0ZM16.0723 0L10.2839 3.14566H11.5769L17.3653 0H16.0723Z" fill="#EA0020"/>
<path d="M5.78843 6.31299L0 9.45865H1.29295L7.08137 6.31299H5.78843ZM11.5769 6.31299L17.3653 9.45865V8.74274L12.8698 6.31299H11.5769Z" fill="#EA0020"/>
</svg>
